<?xml version="1.0" encoding="utf-8"?>
<svg fill="white" width="800px" height="800px" viewBox="0 0 42 42" role="img" xmlns="http://www.w3.org/2000/svg">
<path d="m 22.733612,0.07442375 v 0.0078 c -1.244385,0.01655 -2.839044,0.09799 -3.804936,0.514697 -1.862165,0.80336895 -3.697497,2.40202895 -4.474662,3.85144895 -0.155125,0.2893 -0.331098,0.7938897 -0.440284,1.1037997 L 1.9291977,39.851836 c -0.109186,0.30991 -0.300332,0.81135 -0.344682,1.13636 -0.08543,0.62607 0.17997,0.93741 0.714685,0.93741 H 17.804197 c 3.63724,0 8.256343,-3.09499 8.256343,-7.68945 v -5.2312 h 2.938839 4.750618 c 5.13217,0 6.68124,-3.58816 6.68124,-6.996475 v -8.57157 c 0,-0.79328 -0.30695,-1.00872 -1.44952,-1.00872 h -5.23172 c -0.01407,0 -0.02783,9.3e-4 -0.04186,10e-4 L 30.918125,2.3745117 c -0.135184,-0.4872 -0.831848,-2.30011795 -2.747119,-2.30011795 z m 3.326928,2.09495795 1.453658,0.0021 c 0.358333,5.5e-4 1.036994,0.0043 1.111044,0.26148 l 3.003951,10.4350293 c -1.964592,0.85867 -3.299541,2.88209 -3.299541,5.23275 v 8.814965 H 26.06054 Z" />
</svg>