<svg
   version="1.1"
   viewBox="0 0 5333.3335 5333.3335"
   xmlns="http://www.w3.org/2000/svg"
   xmlns:svg="http://www.w3.org/2000/svg">
      <path
         id="path3"
         d="m 27498.1,34669.4 c -455.6,615.6 -1073.7,1044.4 -1747.5,1182.5 -338.1,68.7 -668.7,-148.8 -738.1,-486.9 -68.7,-338.1 149.4,-668.7 486.9,-738.1 388.7,-79.4 731.2,-346.3 994.4,-701.9 205.6,-276.9 597.5,-335 874.3,-130 277.5,205.6 335.7,597.5 130,874.4 z m -8138.7,1195 c 388.7,1822.5 1972.5,2675.6 3069.4,2645.6 1095,-30 1704.3,-940.6 153.7,-2645.6 h 879.4 c 345,0 625,-280 625,-625 0,-345 -280,-625 -625,-625 h -867.5 c 1535.6,-1696.9 926.2,-2602.5 -165.6,-2633.1 -1094.4,-30 -2673.8,819.3 -3066.9,2633.1 h -85 c -344.4,0 -625,280 -625,625 0,345 280.6,625 625,625 z m 8536.9,-5281.9 c 295,610 408.1,1255 379.3,1876.9 -16.2,345 -309.3,611.2 -653.7,595 -344.4,-16.3 -611.3,-308.8 -595,-653.1 20,-422.5 -56.3,-860.7 -256.3,-1275 -150,-310.7 -20,-685 290.7,-835 310.6,-150 685,-19.4 835,291.2 z M 24715,28123.1 c 618.8,189.4 1141.3,431.9 1578.8,710 290.6,185.6 376.8,571.9 191.2,863.1 -185,290.7 -571.9,376.9 -863.1,191.3 -351.9,-223.8 -773.8,-416.3 -1272.5,-568.8 -329.4,-101.2 -515.6,-450.6 -414.4,-780.6 100.6,-330 450.6,-515.6 780,-415 z m -3544.4,-436.2 c 533.2,-6.3 1029.4,12.5 1490,53.1 343.8,30.6 598.2,334.4 567.5,678.1 -30.6,343.1 -334.3,597.5 -678.1,566.9 -421.9,-36.9 -876.2,-54.4 -1365,-48.1 -345,3.7 -628.1,-273.2 -631.9,-617.5 -4.3,-345 272.5,-628.8 617.5,-632.5 z m -3257.5,-36.9 c 314.4,58.1 647.5,95.6 998.8,110 345,15 612.5,306.9 598.1,651.2 -14.4,344.4 -306.2,612.5 -651.2,598.2 -412.5,-17.5 -803.8,-61.9 -1173.2,-130 -338.7,-63.1 -563.7,-389.4 -500.6,-728.2 62.5,-339.3 388.8,-563.7 728.1,-501.2 z m -2324.4,-1078.1 c 160.7,148.7 340.7,286.2 537.6,410.6 291.8,184.4 379.3,570.6 195.6,861.9 -184.4,291.8 -570.6,379.4 -862.5,195.6 -264.4,-166.9 -504.4,-351.3 -720,-551.3 -253.1,-234.3 -268.2,-629.9 -33.8,-883.1 234.4,-253.1 630,-268.1 883.1,-33.7 z m -961.2,-2087.5 c 6.3,251.8 43.1,496.2 110.6,730.6 95,331.2 -96.8,678.1 -428.7,773.1 -331.3,95 -678.1,-96.9 -773.1,-428.7 -95.7,-335 -149.4,-684.4 -158.8,-1043.8 -8.1,-345 264.4,-631.9 609.4,-640 345,-8.7 631.8,263.8 640.6,608.8 z m 913.7,-2550.7 c -185.6,251.9 -342.4,505 -471.2,758.2 -156.2,307.5 -533.1,430 -840.6,273.7 -307.5,-156.2 -430,-533.1 -273.8,-840.6 158.8,-311.3 351.3,-623.1 579.4,-932.5 204.4,-277.5 595.6,-336.9 873.7,-132.5 277.6,205 336.9,596.2 132.5,873.7 z M 34790,22252.5 32245.6,18479.4 20985,22145 l 2557.5,3761.9 z m -14790,-7911.9 10478.1,3400 -10478.1,3410.6 z m 12318.8,-2574.4 2835,921.3 -2908.8,4311.9 -11261.2,-3653.8 2923.1,-4312.5 8388.7,2725.6 c 7.5,2.5 15,5 23.2,7.5 z m -24614.42,-7.5 8388.72,-2725.6 2923.2,4312.5 -11261.3,3653.8 -2908.75,-4311.9 2835,-921.3 c 8.13,-2.5 15.63,-5 23.13,-7.5 z m 12285.02,795.7 -2861.9,-4222.5 c -311.9,-461.3 -891.2,-660 -1420.6,-488.2 L 8125,10307.5 V 6169.4 c 0,-276.3 181.25,-519.4 445.63,-598.8 l 11249.97,-3375 c 46.3,-13.7 94.4,-22.5 142.5,-25 -41.8,1941.9 4.4,7881.3 26.3,10383.8 z m 10.6,10365.6 -2028.1,2982.5 c -193.8,285 -582.5,359.4 -868.2,165.6 -284.9,-194.4 -359.3,-583.1 -165.6,-868.7 L 19015,22145 7754.38,18479.4 5210,22252.5 c 1436.88,466.9 6452.5,2096.9 6452.5,2096.9 328.1,106.2 508.1,459.3 401.3,787.5 -106.3,328.1 -459.4,507.5 -787.5,401.2 0,0 -5015.67,-1630 -6452.55,-2096.9 -373.75,-121.2 -668.12,-410.6 -795.62,-781.8 -128.13,-370.6 -74.38,-780.7 145,-1105.7 L 6746.25,17739.4 3810,13386.2 c -219.37,-325.6 -273.75,-735 -145.62,-1106.2 127.5,-370.6 422.5,-660.6 795.62,-781.9 l 2415,-784.4 V 6169.4 C 6875,5341.2 7418.13,4611.2 8211.25,4373.7 10722.5,3620 17786.9,1500.6 19461.3,998.703 c 351.2,-105.601 726.2,-105.601 1077.5,0 1674.3,501.897 8738.7,2621.297 11250,3374.997 793.1,237.5 1336.2,967.5 1336.2,1795.7 v 4544.3 l 2415,784.4 c 373.1,121.3 668.1,411.3 795.6,781.9 128.2,371.2 73.8,780.6 -145.6,1106.2 l -2936.2,4353.2 2573.1,3814.3 c 219.4,325 273.1,735.1 145,1105.7 -127.5,371.2 -421.9,660.6 -795.6,781.8 l -11247.5,3655 c -528.8,171.3 -1107.5,-26.2 -1420,-486.2 L 20000,22920"
         style="fill:#ffffff;fill-opacity:1;fill-rule:evenodd;stroke:none"
         transform="matrix(0.13333333,0,0,-0.13333333,0,5333.3333)" />
</svg>
