<svg version="1.1" xmlns="http://www.w3.org/2000/svg" xmlns:xlink="http://www.w3.org/1999/xlink" x="0px" y="0px" viewBox="0 0 256 256" enable-background="new 0 0 256 256" xml:space="preserve">
<g><g><path fill="#FFFFFF" d="M61.7,89.2c8.7-6.5,15.7-3,15.7,7.9v61.8c0,10.9-7,14.4-15.7,7.9l-36-27c-8.7-6.5-8.7-17.1,0-23.6L61.7,89.2z M10,23.1C10,15.9,15.9,10,23.1,10h209.8c7.2,0,13.1,5.9,13.1,13.1c0,7.2-5.9,13.1-13.1,13.1H23.1C15.9,36.2,10,30.3,10,23.1z M10,232.9c0-7.3,5.9-13.1,13.1-13.1h209.8c7.2,0,13.1,5.9,13.1,13.1c0,7.3-5.9,13.1-13.1,13.1H23.1C15.9,246,10,240.1,10,232.9z M108.3,88.7c0-7.2,5.9-13.1,13.1-13.1h104.9c7.2,0,13.1,5.9,13.1,13.1c0,7.2-5.9,13.1-13.1,13.1H121.5C114.2,101.8,108.3,95.9,108.3,88.7z M108.3,167.3c0-7.2,5.9-13.1,13.1-13.1h104.9c7.2,0,13.1,5.9,13.1,13.1c0,7.3-5.9,13.1-13.1,13.1H121.5C114.2,180.5,108.3,174.6,108.3,167.3z"/></g></g>
</svg>