<svg version="1.1" xmlns="http://www.w3.org/2000/svg" xmlns:xlink="http://www.w3.org/1999/xlink" x="0px" y="0px" viewBox="0 0 256 256" enable-background="new 0 0 256 256" xml:space="preserve">
<g><g><path fill="#FFFFFF" d="M194.3,89.2l36,27c8.7,6.5,8.7,17.1,0,23.6l-36,27c-8.7,6.5-15.7,3-15.7-7.9V97.1C178.6,86.2,185.6,82.7,194.3,89.2L194.3,89.2z M246,23.1c0,7.2-5.9,13.1-13.1,13.1H23.1c-7.2,0-13.1-5.9-13.1-13.1C10,15.9,15.9,10,23.1,10h209.8C240.1,10,246,15.9,246,23.1L246,23.1z M246,232.9c0,7.3-5.9,13.1-13.1,13.1H23.1c-7.2,0-13.1-5.9-13.1-13.1c0-7.2,5.9-13.1,13.1-13.1h209.8C240.1,219.8,246,225.7,246,232.9L246,232.9z M134.6,101.8H29.7c-7.2,0-13.1-5.9-13.1-13.1c0-7.2,5.9-13.1,13.1-13.1h104.9c7.3,0,13.1,5.9,13.1,13.1C147.7,95.9,141.8,101.8,134.6,101.8z M134.6,180.5H29.7c-7.2,0-13.1-5.9-13.1-13.1c0-7.3,5.9-13.1,13.1-13.1h104.9c7.3,0,13.1,5.9,13.1,13.1S141.8,180.5,134.6,180.5z"/></g></g>
</svg>