<?xml version="1.0" encoding="UTF-8" standalone="no"?>
<svg
   width="1640"
   height="650"
   viewBox="0 0 1640 650"
   fill="none"
   version="1.1"
   id="svg51"
   sodipodi:docname="release-schedule.svg"
   inkscape:version="1.3 (0e150ed6c4, 2023-07-21)"
   xmlns:inkscape="http://www.inkscape.org/namespaces/inkscape"
   xmlns:sodipodi="http://sodipodi.sourceforge.net/DTD/sodipodi-0.dtd"
   xmlns="http://www.w3.org/2000/svg"
   xmlns:svg="http://www.w3.org/2000/svg">
  <sodipodi:namedview
     id="namedview51"
     pagecolor="#505050"
     bordercolor="#eeeeee"
     borderopacity="1"
     inkscape:showpageshadow="0"
     inkscape:pageopacity="0"
     inkscape:pagecheckerboard="0"
     inkscape:deskcolor="#d1d1d1"
     inkscape:zoom="0.60583942"
     inkscape:cx="822"
     inkscape:cy="329.29518"
     inkscape:window-width="1920"
     inkscape:window-height="1009"
     inkscape:window-x="-8"
     inkscape:window-y="-5"
     inkscape:window-maximized="1"
     inkscape:current-layer="g33" />
  <rect
     style="fill:#ffffff;fill-opacity:1;stroke-width:0.377486;stroke-linecap:square;stroke-linejoin:round;stroke-miterlimit:0"
     id="rect52"
     width="1640"
     height="650"
     x="0"
     y="0"
     ry="1.6924638" />
  <g
     clip-path="url(#clip0_3731_131)"
     id="g33">
    <path
       d="m 121.785,122 h -2.33 l -6.137,-9.443 c -0.155,-0.239 -0.284,-0.487 -0.385,-0.744 h -0.054 c 0.048,0.275 0.071,0.863 0.071,1.765 V 122 h -2.06 v -12.848 h 2.482 l 5.931,9.219 c 0.251,0.383 0.412,0.645 0.484,0.789 h 0.035 c -0.059,-0.341 -0.089,-0.917 -0.089,-1.729 v -8.279 h 2.052 z m 7.024,0.215 c -1.416,0 -2.548,-0.427 -3.396,-1.281 -0.842,-0.86 -1.263,-1.998 -1.263,-3.414 0,-1.541 0.439,-2.744 1.317,-3.61 0.884,-0.867 2.073,-1.3 3.566,-1.3 1.433,0 2.55,0.422 3.351,1.264 0.8,0.842 1.2,2.01 1.2,3.503 0,1.463 -0.433,2.637 -1.299,3.521 -0.86,0.878 -2.019,1.317 -3.476,1.317 z m 0.098,-7.947 c -0.812,0 -1.454,0.284 -1.926,0.851 -0.472,0.568 -0.708,1.35 -0.708,2.347 0,0.962 0.239,1.721 0.717,2.276 0.478,0.55 1.117,0.824 1.917,0.824 0.819,0 1.446,-0.271 1.882,-0.815 0.442,-0.543 0.663,-1.317 0.663,-2.32 0,-1.01 -0.221,-1.789 -0.663,-2.339 -0.436,-0.549 -1.063,-0.824 -1.882,-0.824 z m 14.703,-1.443 -3.548,9.175 h -2.249 l -3.378,-9.175 h 2.258 l 2.034,6.415 c 0.155,0.472 0.251,0.884 0.287,1.237 h 0.027 c 0.053,-0.442 0.137,-0.842 0.25,-1.201 l 2.133,-6.451 z M 157.667,122 h -8.063 v -0.995 c 0,-0.406 0.056,-0.785 0.17,-1.137 0.113,-0.359 0.266,-0.693 0.457,-1.004 0.191,-0.316 0.415,-0.612 0.672,-0.887 0.257,-0.281 0.531,-0.549 0.824,-0.806 0.293,-0.263 0.591,-0.514 0.896,-0.753 0.305,-0.245 0.603,-0.49 0.896,-0.734 0.275,-0.233 0.526,-0.46 0.753,-0.681 0.227,-0.227 0.421,-0.46 0.582,-0.699 0.161,-0.239 0.287,-0.49 0.376,-0.753 0.09,-0.269 0.135,-0.558 0.135,-0.869 0,-0.34 -0.054,-0.636 -0.162,-0.887 -0.101,-0.257 -0.247,-0.469 -0.439,-0.636 -0.185,-0.173 -0.406,-0.302 -0.663,-0.385 -0.256,-0.09 -0.537,-0.135 -0.842,-0.135 -0.525,0 -1.06,0.123 -1.604,0.368 -0.543,0.245 -1.066,0.612 -1.567,1.102 v -1.998 c 0.262,-0.197 0.528,-0.368 0.797,-0.511 0.269,-0.149 0.546,-0.272 0.833,-0.367 0.287,-0.102 0.589,-0.176 0.905,-0.224 0.317,-0.048 0.654,-0.072 1.013,-0.072 0.579,0 1.105,0.078 1.576,0.233 0.472,0.149 0.875,0.373 1.21,0.672 0.334,0.293 0.591,0.66 0.77,1.102 0.186,0.442 0.278,0.95 0.278,1.523 0,0.52 -0.066,0.989 -0.197,1.407 -0.125,0.412 -0.308,0.797 -0.546,1.156 -0.233,0.358 -0.517,0.698 -0.852,1.021 -0.334,0.322 -0.707,0.654 -1.12,0.994 -0.346,0.281 -0.692,0.556 -1.039,0.825 -0.34,0.262 -0.648,0.522 -0.923,0.779 -0.274,0.251 -0.498,0.505 -0.672,0.762 -0.167,0.251 -0.251,0.504 -0.251,0.761 v 0.045 h 5.797 z m 6.209,0.215 c -1.338,0 -2.383,-0.547 -3.136,-1.64 -0.746,-1.093 -1.12,-2.672 -1.12,-4.739 0,-2.27 0.392,-3.987 1.174,-5.152 0.783,-1.165 1.912,-1.747 3.387,-1.747 2.825,0 4.238,2.195 4.238,6.585 0,2.174 -0.401,3.835 -1.201,4.982 -0.794,1.141 -1.908,1.711 -3.342,1.711 z m 0.206,-11.62 c -1.559,0 -2.338,1.717 -2.338,5.151 0,3.214 0.764,4.82 2.293,4.82 1.506,0 2.258,-1.633 2.258,-4.9 0,-3.381 -0.737,-5.071 -2.213,-5.071 z M 178.059,122 h -8.063 v -0.995 c 0,-0.406 0.056,-0.785 0.17,-1.137 0.113,-0.359 0.266,-0.693 0.457,-1.004 0.191,-0.316 0.415,-0.612 0.672,-0.887 0.257,-0.281 0.531,-0.549 0.824,-0.806 0.293,-0.263 0.591,-0.514 0.896,-0.753 0.305,-0.245 0.603,-0.49 0.896,-0.734 0.275,-0.233 0.525,-0.46 0.752,-0.681 0.227,-0.227 0.422,-0.46 0.583,-0.699 0.161,-0.239 0.287,-0.49 0.376,-0.753 0.09,-0.269 0.134,-0.558 0.134,-0.869 0,-0.34 -0.053,-0.636 -0.161,-0.887 -0.101,-0.257 -0.248,-0.469 -0.439,-0.636 -0.185,-0.173 -0.406,-0.302 -0.663,-0.385 -0.257,-0.09 -0.537,-0.135 -0.842,-0.135 -0.526,0 -1.06,0.123 -1.604,0.368 -0.543,0.245 -1.066,0.612 -1.568,1.102 v -1.998 c 0.263,-0.197 0.529,-0.368 0.798,-0.511 0.269,-0.149 0.546,-0.272 0.833,-0.367 0.287,-0.102 0.588,-0.176 0.905,-0.224 0.316,-0.048 0.654,-0.072 1.012,-0.072 0.58,0 1.105,0.078 1.577,0.233 0.472,0.149 0.875,0.373 1.21,0.672 0.334,0.293 0.591,0.66 0.77,1.102 0.185,0.442 0.278,0.95 0.278,1.523 0,0.52 -0.066,0.989 -0.197,1.407 -0.126,0.412 -0.308,0.797 -0.547,1.156 -0.233,0.358 -0.516,0.698 -0.851,1.021 -0.334,0.322 -0.708,0.654 -1.12,0.994 -0.346,0.281 -0.693,0.556 -1.039,0.825 -0.341,0.262 -0.648,0.522 -0.923,0.779 -0.275,0.251 -0.499,0.505 -0.672,0.762 -0.167,0.251 -0.251,0.504 -0.251,0.761 v 0.045 h 5.797 z m 6.764,-13.135 V 122 h -2.078 v -10.59 c -0.376,0.269 -0.783,0.499 -1.219,0.69 -0.43,0.185 -0.922,0.349 -1.478,0.493 v -1.774 c 0.347,-0.114 0.681,-0.233 1.004,-0.359 0.322,-0.125 0.639,-0.266 0.949,-0.421 0.317,-0.155 0.633,-0.328 0.95,-0.52 0.323,-0.191 0.654,-0.409 0.994,-0.654 z"
       fill="#33312d"
       id="path1" />
    <path
       d="m 436.878,122 h -2.33 l -6.137,-9.443 c -0.155,-0.239 -0.284,-0.487 -0.385,-0.744 h -0.054 c 0.048,0.275 0.072,0.863 0.072,1.765 V 122 h -2.061 v -12.848 h 2.482 l 5.931,9.219 c 0.251,0.383 0.412,0.645 0.484,0.789 h 0.036 c -0.06,-0.341 -0.09,-0.917 -0.09,-1.729 v -8.279 h 2.052 z m 7.024,0.215 c -1.415,0 -2.547,-0.427 -3.396,-1.281 -0.842,-0.86 -1.263,-1.998 -1.263,-3.414 0,-1.541 0.439,-2.744 1.317,-3.61 0.884,-0.867 2.073,-1.3 3.566,-1.3 1.434,0 2.551,0.422 3.351,1.264 0.8,0.842 1.201,2.01 1.201,3.503 0,1.463 -0.433,2.637 -1.3,3.521 -0.86,0.878 -2.018,1.317 -3.476,1.317 z m 0.099,-7.947 c -0.813,0 -1.455,0.284 -1.927,0.851 -0.471,0.568 -0.707,1.35 -0.707,2.347 0,0.962 0.239,1.721 0.716,2.276 0.478,0.55 1.117,0.824 1.918,0.824 0.818,0 1.445,-0.271 1.881,-0.815 0.442,-0.543 0.663,-1.317 0.663,-2.32 0,-1.01 -0.221,-1.789 -0.663,-2.339 -0.436,-0.549 -1.063,-0.824 -1.881,-0.824 z m 14.702,-1.443 -3.548,9.175 h -2.249 l -3.377,-9.175 h 2.257 l 2.034,6.415 c 0.156,0.472 0.251,0.884 0.287,1.237 h 0.027 c 0.054,-0.442 0.137,-0.842 0.251,-1.201 l 2.132,-6.451 z M 472.761,122 h -8.064 v -0.995 c 0,-0.406 0.057,-0.785 0.17,-1.137 0.114,-0.359 0.266,-0.693 0.457,-1.004 0.191,-0.316 0.415,-0.612 0.672,-0.887 0.257,-0.281 0.532,-0.549 0.825,-0.806 0.292,-0.263 0.591,-0.514 0.895,-0.753 0.305,-0.245 0.604,-0.49 0.896,-0.734 0.275,-0.233 0.526,-0.46 0.753,-0.681 0.227,-0.227 0.421,-0.46 0.582,-0.699 0.162,-0.239 0.287,-0.49 0.377,-0.753 0.089,-0.269 0.134,-0.558 0.134,-0.869 0,-0.34 -0.054,-0.636 -0.161,-0.887 -0.102,-0.257 -0.248,-0.469 -0.439,-0.636 -0.185,-0.173 -0.406,-0.302 -0.663,-0.385 -0.257,-0.09 -0.538,-0.135 -0.842,-0.135 -0.526,0 -1.061,0.123 -1.604,0.368 -0.544,0.245 -1.066,0.612 -1.568,1.102 v -1.998 c 0.263,-0.197 0.529,-0.368 0.797,-0.511 0.269,-0.149 0.547,-0.272 0.834,-0.367 0.286,-0.102 0.588,-0.176 0.904,-0.224 0.317,-0.048 0.654,-0.072 1.013,-0.072 0.579,0 1.105,0.078 1.577,0.233 0.472,0.149 0.875,0.373 1.209,0.672 0.335,0.293 0.592,0.66 0.771,1.102 0.185,0.442 0.278,0.95 0.278,1.523 0,0.52 -0.066,0.989 -0.198,1.407 -0.125,0.412 -0.307,0.797 -0.546,1.156 -0.233,0.358 -0.517,0.698 -0.851,1.021 -0.335,0.322 -0.708,0.654 -1.12,0.994 -0.347,0.281 -0.693,0.556 -1.039,0.825 -0.341,0.262 -0.649,0.522 -0.923,0.779 -0.275,0.251 -0.499,0.505 -0.672,0.762 -0.168,0.251 -0.251,0.504 -0.251,0.761 v 0.045 h 5.797 z m 6.209,0.215 c -1.338,0 -2.384,-0.547 -3.136,-1.64 -0.747,-1.093 -1.12,-2.672 -1.12,-4.739 0,-2.27 0.391,-3.987 1.174,-5.152 0.782,-1.165 1.911,-1.747 3.386,-1.747 2.825,0 4.238,2.195 4.238,6.585 0,2.174 -0.4,3.835 -1.201,4.982 -0.794,1.141 -1.908,1.711 -3.341,1.711 z m 0.206,-11.62 c -1.559,0 -2.339,1.717 -2.339,5.151 0,3.214 0.765,4.82 2.294,4.82 1.505,0 2.258,-1.633 2.258,-4.9 0,-3.381 -0.738,-5.071 -2.213,-5.071 z M 493.152,122 h -8.063 v -0.995 c 0,-0.406 0.057,-0.785 0.17,-1.137 0.114,-0.359 0.266,-0.693 0.457,-1.004 0.191,-0.316 0.415,-0.612 0.672,-0.887 0.257,-0.281 0.532,-0.549 0.824,-0.806 0.293,-0.263 0.592,-0.514 0.896,-0.753 0.305,-0.245 0.604,-0.49 0.896,-0.734 0.275,-0.233 0.526,-0.46 0.753,-0.681 0.227,-0.227 0.421,-0.46 0.582,-0.699 0.161,-0.239 0.287,-0.49 0.376,-0.753 0.09,-0.269 0.135,-0.558 0.135,-0.869 0,-0.34 -0.054,-0.636 -0.161,-0.887 -0.102,-0.257 -0.248,-0.469 -0.439,-0.636 -0.186,-0.173 -0.407,-0.302 -0.663,-0.385 -0.257,-0.09 -0.538,-0.135 -0.843,-0.135 -0.525,0 -1.06,0.123 -1.603,0.368 -0.544,0.245 -1.067,0.612 -1.568,1.102 v -1.998 c 0.263,-0.197 0.528,-0.368 0.797,-0.511 0.269,-0.149 0.547,-0.272 0.833,-0.367 0.287,-0.102 0.589,-0.176 0.905,-0.224 0.317,-0.048 0.654,-0.072 1.013,-0.072 0.579,0 1.105,0.078 1.577,0.233 0.471,0.149 0.875,0.373 1.209,0.672 0.335,0.293 0.591,0.66 0.771,1.102 0.185,0.442 0.277,0.95 0.277,1.523 0,0.52 -0.065,0.989 -0.197,1.407 -0.125,0.412 -0.307,0.797 -0.546,1.156 -0.233,0.358 -0.517,0.698 -0.851,1.021 -0.335,0.322 -0.708,0.654 -1.12,0.994 -0.347,0.281 -0.693,0.556 -1.04,0.825 -0.34,0.262 -0.648,0.522 -0.923,0.779 -0.274,0.251 -0.498,0.505 -0.671,0.762 -0.168,0.251 -0.251,0.504 -0.251,0.761 v 0.045 h 5.796 z m 10.196,0 h -8.063 v -0.995 c 0,-0.406 0.057,-0.785 0.17,-1.137 0.114,-0.359 0.266,-0.693 0.457,-1.004 0.191,-0.316 0.415,-0.612 0.672,-0.887 0.257,-0.281 0.532,-0.549 0.824,-0.806 0.293,-0.263 0.592,-0.514 0.896,-0.753 0.305,-0.245 0.603,-0.49 0.896,-0.734 0.275,-0.233 0.526,-0.46 0.753,-0.681 0.227,-0.227 0.421,-0.46 0.582,-0.699 0.161,-0.239 0.287,-0.49 0.376,-0.753 0.09,-0.269 0.135,-0.558 0.135,-0.869 0,-0.34 -0.054,-0.636 -0.162,-0.887 -0.101,-0.257 -0.247,-0.469 -0.439,-0.636 -0.185,-0.173 -0.406,-0.302 -0.663,-0.385 -0.256,-0.09 -0.537,-0.135 -0.842,-0.135 -0.525,0 -1.06,0.123 -1.603,0.368 -0.544,0.245 -1.067,0.612 -1.568,1.102 v -1.998 c 0.262,-0.197 0.528,-0.368 0.797,-0.511 0.269,-0.149 0.547,-0.272 0.833,-0.367 0.287,-0.102 0.589,-0.176 0.905,-0.224 0.317,-0.048 0.654,-0.072 1.013,-0.072 0.579,0 1.105,0.078 1.576,0.233 0.472,0.149 0.875,0.373 1.21,0.672 0.334,0.293 0.591,0.66 0.77,1.102 0.186,0.442 0.278,0.95 0.278,1.523 0,0.52 -0.065,0.989 -0.197,1.407 -0.125,0.412 -0.307,0.797 -0.546,1.156 -0.233,0.358 -0.517,0.698 -0.852,1.021 -0.334,0.322 -0.707,0.654 -1.119,0.994 -0.347,0.281 -0.693,0.556 -1.04,0.825 -0.34,0.262 -0.648,0.522 -0.923,0.779 -0.274,0.251 -0.498,0.505 -0.672,0.762 -0.167,0.251 -0.25,0.504 -0.25,0.761 v 0.045 h 5.796 z"
       fill="#33312d"
       id="path2" />
    <path
       d="m 915.831,122 h -2.114 v -8.314 c 0,-0.681 0.041,-1.515 0.125,-2.5 h -0.036 c -0.131,0.561 -0.248,0.965 -0.349,1.209 L 909.622,122 h -1.469 l -3.844,-9.533 c -0.107,-0.281 -0.221,-0.708 -0.34,-1.281 h -0.036 c 0.048,0.514 0.072,1.353 0.072,2.518 V 122 h -1.972 v -12.848 h 3.002 l 3.378,8.556 c 0.256,0.657 0.424,1.147 0.501,1.47 h 0.045 c 0.221,-0.675 0.4,-1.177 0.538,-1.505 l 3.44,-8.521 h 2.894 z m 9.981,0 h -2.016 v -1.434 h -0.036 c -0.633,1.1 -1.562,1.649 -2.786,1.649 -0.902,0 -1.61,-0.245 -2.124,-0.735 -0.507,-0.489 -0.761,-1.138 -0.761,-1.944 0,-1.732 0.997,-2.741 2.992,-3.028 l 2.724,-0.385 c 0,-1.309 -0.621,-1.963 -1.864,-1.963 -1.093,0 -2.078,0.377 -2.956,1.129 v -1.818 c 0.967,-0.574 2.084,-0.861 3.351,-0.861 2.317,0 3.476,1.141 3.476,3.423 z m -2.007,-4.507 -1.926,0.269 c -0.598,0.078 -1.049,0.224 -1.353,0.439 -0.299,0.209 -0.448,0.58 -0.448,1.111 0,0.388 0.137,0.708 0.412,0.959 0.281,0.245 0.654,0.367 1.12,0.367 0.633,0 1.156,-0.221 1.568,-0.663 0.418,-0.448 0.627,-1.009 0.627,-1.684 z m 12.498,-4.668 -4.139,10.644 c -0.86,1.9 -2.066,2.849 -3.619,2.849 -0.436,0 -0.801,-0.038 -1.093,-0.116 v -1.729 c 0.328,0.107 0.627,0.161 0.895,0.161 0.777,0 1.356,-0.382 1.739,-1.147 l 0.618,-1.505 -3.647,-9.157 h 2.303 l 2.186,6.666 c 0.024,0.084 0.078,0.305 0.161,0.663 h 0.045 c 0.03,-0.137 0.084,-0.352 0.161,-0.645 l 2.294,-6.684 z M 950.334,122 h -8.063 v -0.995 c 0,-0.406 0.056,-0.785 0.17,-1.137 0.113,-0.359 0.266,-0.693 0.457,-1.004 0.191,-0.316 0.415,-0.612 0.672,-0.887 0.256,-0.281 0.531,-0.549 0.824,-0.806 0.293,-0.263 0.591,-0.514 0.896,-0.753 0.304,-0.245 0.603,-0.49 0.896,-0.734 0.275,-0.233 0.525,-0.46 0.752,-0.681 0.227,-0.227 0.422,-0.46 0.583,-0.699 0.161,-0.239 0.286,-0.49 0.376,-0.753 0.09,-0.269 0.134,-0.558 0.134,-0.869 0,-0.34 -0.053,-0.636 -0.161,-0.887 -0.101,-0.257 -0.248,-0.469 -0.439,-0.636 -0.185,-0.173 -0.406,-0.302 -0.663,-0.385 -0.257,-0.09 -0.537,-0.135 -0.842,-0.135 -0.526,0 -1.06,0.123 -1.604,0.368 -0.543,0.245 -1.066,0.612 -1.568,1.102 v -1.998 c 0.263,-0.197 0.529,-0.368 0.798,-0.511 0.269,-0.149 0.546,-0.272 0.833,-0.367 0.287,-0.102 0.588,-0.176 0.905,-0.224 0.316,-0.048 0.654,-0.072 1.012,-0.072 0.58,0 1.105,0.078 1.577,0.233 0.472,0.149 0.875,0.373 1.21,0.672 0.334,0.293 0.591,0.66 0.77,1.102 0.185,0.442 0.278,0.95 0.278,1.523 0,0.52 -0.066,0.989 -0.197,1.407 -0.126,0.412 -0.308,0.797 -0.547,1.156 -0.233,0.358 -0.516,0.698 -0.851,1.021 -0.334,0.322 -0.708,0.654 -1.12,0.994 -0.346,0.281 -0.693,0.556 -1.039,0.825 -0.341,0.262 -0.648,0.522 -0.923,0.779 -0.275,0.251 -0.499,0.505 -0.672,0.762 -0.167,0.251 -0.251,0.504 -0.251,0.761 v 0.045 h 5.797 z m 6.209,0.215 c -1.338,0 -2.383,-0.547 -3.136,-1.64 -0.746,-1.093 -1.12,-2.672 -1.12,-4.739 0,-2.27 0.391,-3.987 1.174,-5.152 0.782,-1.165 1.911,-1.747 3.387,-1.747 2.825,0 4.237,2.195 4.237,6.585 0,2.174 -0.4,3.835 -1.2,4.982 -0.795,1.141 -1.909,1.711 -3.342,1.711 z m 0.206,-11.62 c -1.559,0 -2.338,1.717 -2.338,5.151 0,3.214 0.764,4.82 2.293,4.82 1.505,0 2.258,-1.633 2.258,-4.9 0,-3.381 -0.738,-5.071 -2.213,-5.071 z M 970.726,122 h -8.064 v -0.995 c 0,-0.406 0.057,-0.785 0.171,-1.137 0.113,-0.359 0.265,-0.693 0.456,-1.004 0.192,-0.316 0.416,-0.612 0.672,-0.887 0.257,-0.281 0.532,-0.549 0.825,-0.806 0.292,-0.263 0.591,-0.514 0.896,-0.753 0.304,-0.245 0.603,-0.49 0.896,-0.734 0.274,-0.233 0.525,-0.46 0.752,-0.681 0.227,-0.227 0.421,-0.46 0.583,-0.699 0.161,-0.239 0.286,-0.49 0.376,-0.753 0.089,-0.269 0.134,-0.558 0.134,-0.869 0,-0.34 -0.053,-0.636 -0.161,-0.887 -0.102,-0.257 -0.248,-0.469 -0.439,-0.636 -0.185,-0.173 -0.406,-0.302 -0.663,-0.385 -0.257,-0.09 -0.538,-0.135 -0.842,-0.135 -0.526,0 -1.06,0.123 -1.604,0.368 -0.544,0.245 -1.066,0.612 -1.568,1.102 v -1.998 c 0.263,-0.197 0.529,-0.368 0.798,-0.511 0.268,-0.149 0.546,-0.272 0.833,-0.367 0.286,-0.102 0.588,-0.176 0.905,-0.224 0.316,-0.048 0.654,-0.072 1.012,-0.072 0.579,0 1.105,0.078 1.577,0.233 0.472,0.149 0.875,0.373 1.209,0.672 0.335,0.293 0.592,0.66 0.771,1.102 0.185,0.442 0.278,0.95 0.278,1.523 0,0.52 -0.066,0.989 -0.197,1.407 -0.126,0.412 -0.308,0.797 -0.547,1.156 -0.233,0.358 -0.517,0.698 -0.851,1.021 -0.335,0.322 -0.708,0.654 -1.12,0.994 -0.346,0.281 -0.693,0.556 -1.039,0.825 -0.341,0.262 -0.648,0.522 -0.923,0.779 -0.275,0.251 -0.499,0.505 -0.672,0.762 -0.167,0.251 -0.251,0.504 -0.251,0.761 v 0.045 h 5.797 z m 9.551,-12.848 v 8.297 h 1.908 v 1.729 h -1.908 V 122 h -2.016 v -2.822 h -5.815 v -1.747 c 0.526,-0.592 1.063,-1.231 1.613,-1.918 0.555,-0.693 1.087,-1.397 1.595,-2.114 0.513,-0.723 0.988,-1.446 1.424,-2.168 0.436,-0.723 0.803,-1.416 1.102,-2.079 z m -2.016,8.297 v -5.394 c -0.651,1.171 -1.296,2.192 -1.935,3.064 -0.634,0.872 -1.228,1.649 -1.783,2.33 z"
       fill="#33312d"
       id="path3" />
    <path
       d="m 747.878,122 h -2.33 l -6.137,-9.443 c -0.155,-0.239 -0.284,-0.487 -0.385,-0.744 h -0.054 c 0.048,0.275 0.072,0.863 0.072,1.765 V 122 h -2.061 v -12.848 h 2.482 l 5.931,9.219 c 0.251,0.383 0.412,0.645 0.484,0.789 h 0.036 c -0.06,-0.341 -0.09,-0.917 -0.09,-1.729 v -8.279 h 2.052 z m 7.024,0.215 c -1.415,0 -2.547,-0.427 -3.396,-1.281 -0.842,-0.86 -1.263,-1.998 -1.263,-3.414 0,-1.541 0.439,-2.744 1.317,-3.61 0.884,-0.867 2.073,-1.3 3.566,-1.3 1.434,0 2.551,0.422 3.351,1.264 0.8,0.842 1.201,2.01 1.201,3.503 0,1.463 -0.433,2.637 -1.3,3.521 -0.86,0.878 -2.018,1.317 -3.476,1.317 z m 0.099,-7.947 c -0.813,0 -1.455,0.284 -1.927,0.851 -0.471,0.568 -0.707,1.35 -0.707,2.347 0,0.962 0.239,1.721 0.716,2.276 0.478,0.55 1.117,0.824 1.918,0.824 0.818,0 1.445,-0.271 1.881,-0.815 0.442,-0.543 0.663,-1.317 0.663,-2.32 0,-1.01 -0.221,-1.789 -0.663,-2.339 -0.436,-0.549 -1.063,-0.824 -1.881,-0.824 z m 14.702,-1.443 -3.548,9.175 h -2.249 l -3.377,-9.175 h 2.257 l 2.034,6.415 c 0.156,0.472 0.251,0.884 0.287,1.237 h 0.027 c 0.054,-0.442 0.137,-0.842 0.251,-1.201 l 2.132,-6.451 z M 783.761,122 h -8.064 v -0.995 c 0,-0.406 0.057,-0.785 0.17,-1.137 0.114,-0.359 0.266,-0.693 0.457,-1.004 0.191,-0.316 0.415,-0.612 0.672,-0.887 0.257,-0.281 0.532,-0.549 0.825,-0.806 0.292,-0.263 0.591,-0.514 0.895,-0.753 0.305,-0.245 0.604,-0.49 0.896,-0.734 0.275,-0.233 0.526,-0.46 0.753,-0.681 0.227,-0.227 0.421,-0.46 0.582,-0.699 0.162,-0.239 0.287,-0.49 0.377,-0.753 0.089,-0.269 0.134,-0.558 0.134,-0.869 0,-0.34 -0.054,-0.636 -0.161,-0.887 -0.102,-0.257 -0.248,-0.469 -0.439,-0.636 -0.185,-0.173 -0.406,-0.302 -0.663,-0.385 -0.257,-0.09 -0.538,-0.135 -0.842,-0.135 -0.526,0 -1.061,0.123 -1.604,0.368 -0.544,0.245 -1.066,0.612 -1.568,1.102 v -1.998 c 0.263,-0.197 0.529,-0.368 0.797,-0.511 0.269,-0.149 0.547,-0.272 0.834,-0.367 0.286,-0.102 0.588,-0.176 0.904,-0.224 0.317,-0.048 0.654,-0.072 1.013,-0.072 0.579,0 1.105,0.078 1.577,0.233 0.472,0.149 0.875,0.373 1.209,0.672 0.335,0.293 0.592,0.66 0.771,1.102 0.185,0.442 0.278,0.95 0.278,1.523 0,0.52 -0.066,0.989 -0.198,1.407 -0.125,0.412 -0.307,0.797 -0.546,1.156 -0.233,0.358 -0.517,0.698 -0.851,1.021 -0.335,0.322 -0.708,0.654 -1.12,0.994 -0.347,0.281 -0.693,0.556 -1.039,0.825 -0.341,0.262 -0.649,0.522 -0.923,0.779 -0.275,0.251 -0.499,0.505 -0.672,0.762 -0.168,0.251 -0.251,0.504 -0.251,0.761 v 0.045 h 5.797 z m 6.209,0.215 c -1.338,0 -2.384,-0.547 -3.136,-1.64 -0.747,-1.093 -1.12,-2.672 -1.12,-4.739 0,-2.27 0.391,-3.987 1.174,-5.152 0.782,-1.165 1.911,-1.747 3.386,-1.747 2.825,0 4.238,2.195 4.238,6.585 0,2.174 -0.4,3.835 -1.201,4.982 -0.794,1.141 -1.908,1.711 -3.341,1.711 z m 0.206,-11.62 c -1.559,0 -2.339,1.717 -2.339,5.151 0,3.214 0.765,4.82 2.294,4.82 1.505,0 2.258,-1.633 2.258,-4.9 0,-3.381 -0.738,-5.071 -2.213,-5.071 z M 804.152,122 h -8.063 v -0.995 c 0,-0.406 0.057,-0.785 0.17,-1.137 0.114,-0.359 0.266,-0.693 0.457,-1.004 0.191,-0.316 0.415,-0.612 0.672,-0.887 0.257,-0.281 0.532,-0.549 0.824,-0.806 0.293,-0.263 0.592,-0.514 0.896,-0.753 0.305,-0.245 0.604,-0.49 0.896,-0.734 0.275,-0.233 0.526,-0.46 0.753,-0.681 0.227,-0.227 0.421,-0.46 0.582,-0.699 0.161,-0.239 0.287,-0.49 0.376,-0.753 0.09,-0.269 0.135,-0.558 0.135,-0.869 0,-0.34 -0.054,-0.636 -0.161,-0.887 -0.102,-0.257 -0.248,-0.469 -0.439,-0.636 -0.186,-0.173 -0.407,-0.302 -0.663,-0.385 -0.257,-0.09 -0.538,-0.135 -0.843,-0.135 -0.525,0 -1.06,0.123 -1.603,0.368 -0.544,0.245 -1.067,0.612 -1.568,1.102 v -1.998 c 0.263,-0.197 0.528,-0.368 0.797,-0.511 0.269,-0.149 0.547,-0.272 0.833,-0.367 0.287,-0.102 0.589,-0.176 0.905,-0.224 0.317,-0.048 0.654,-0.072 1.013,-0.072 0.579,0 1.105,0.078 1.577,0.233 0.471,0.149 0.875,0.373 1.209,0.672 0.335,0.293 0.591,0.66 0.771,1.102 0.185,0.442 0.277,0.95 0.277,1.523 0,0.52 -0.065,0.989 -0.197,1.407 -0.125,0.412 -0.307,0.797 -0.546,1.156 -0.233,0.358 -0.517,0.698 -0.851,1.021 -0.335,0.322 -0.708,0.654 -1.12,0.994 -0.347,0.281 -0.693,0.556 -1.04,0.825 -0.34,0.262 -0.648,0.522 -0.923,0.779 -0.274,0.251 -0.498,0.505 -0.671,0.762 -0.168,0.251 -0.251,0.504 -0.251,0.761 v 0.045 h 5.796 z m 2.357,-0.475 v -1.953 c 0.836,0.663 1.78,0.994 2.831,0.994 0.854,0 1.535,-0.194 2.043,-0.582 0.513,-0.388 0.77,-0.914 0.77,-1.577 0,-1.457 -1.114,-2.186 -3.342,-2.186 h -0.994 v -1.666 h 0.95 c 1.977,0 2.965,-0.687 2.965,-2.061 0,-1.266 -0.77,-1.899 -2.311,-1.899 -0.86,0 -1.67,0.307 -2.428,0.922 v -1.845 c 0.872,-0.49 1.902,-0.735 3.091,-0.735 1.14,0 2.054,0.287 2.741,0.86 0.687,0.574 1.031,1.308 1.031,2.204 0,1.691 -0.861,2.778 -2.581,3.261 v 0.036 c 0.926,0.09 1.658,0.415 2.195,0.977 0.538,0.555 0.807,1.251 0.807,2.087 0,1.153 -0.433,2.085 -1.299,2.796 -0.867,0.705 -2.007,1.057 -3.423,1.057 -1.272,0 -2.288,-0.23 -3.046,-0.69 z"
       fill="#33312d"
       id="path4" />
    <path
       d="m 1063.69,122 h -2.33 l -6.14,-9.443 c -0.15,-0.239 -0.28,-0.487 -0.38,-0.744 h -0.06 c 0.05,0.275 0.08,0.863 0.08,1.765 V 122 h -2.06 v -12.848 h 2.48 l 5.93,9.219 c 0.25,0.383 0.41,0.645 0.48,0.789 h 0.04 c -0.06,-0.341 -0.09,-0.917 -0.09,-1.729 v -8.279 h 2.05 z m 7.02,0.215 c -1.41,0 -2.54,-0.427 -3.39,-1.281 -0.84,-0.86 -1.26,-1.998 -1.26,-3.414 0,-1.541 0.43,-2.744 1.31,-3.61 0.89,-0.867 2.07,-1.3 3.57,-1.3 1.43,0 2.55,0.422 3.35,1.264 0.8,0.842 1.2,2.01 1.2,3.503 0,1.463 -0.43,2.637 -1.3,3.521 -0.86,0.878 -2.02,1.317 -3.48,1.317 z m 0.1,-7.947 c -0.81,0 -1.45,0.284 -1.92,0.851 -0.48,0.568 -0.71,1.35 -0.71,2.347 0,0.962 0.24,1.721 0.72,2.276 0.47,0.55 1.11,0.824 1.91,0.824 0.82,0 1.45,-0.271 1.88,-0.815 0.45,-0.543 0.67,-1.317 0.67,-2.32 0,-1.01 -0.22,-1.789 -0.67,-2.339 -0.43,-0.549 -1.06,-0.824 -1.88,-0.824 z m 14.71,-1.443 -3.55,9.175 h -2.25 l -3.38,-9.175 h 2.26 l 2.03,6.415 c 0.16,0.472 0.25,0.884 0.29,1.237 h 0.03 c 0.05,-0.442 0.13,-0.842 0.25,-1.201 l 2.13,-6.451 z m 14.05,9.175 h -8.06 v -0.995 c 0,-0.406 0.06,-0.785 0.17,-1.137 0.11,-0.359 0.26,-0.693 0.46,-1.004 0.19,-0.316 0.41,-0.612 0.67,-0.887 0.25,-0.281 0.53,-0.549 0.82,-0.806 0.3,-0.263 0.59,-0.514 0.9,-0.753 0.3,-0.245 0.6,-0.49 0.89,-0.734 0.28,-0.233 0.53,-0.46 0.76,-0.681 0.22,-0.227 0.42,-0.46 0.58,-0.699 0.16,-0.239 0.29,-0.49 0.38,-0.753 0.09,-0.269 0.13,-0.558 0.13,-0.869 0,-0.34 -0.05,-0.636 -0.16,-0.887 -0.1,-0.257 -0.25,-0.469 -0.44,-0.636 -0.19,-0.173 -0.41,-0.302 -0.66,-0.385 -0.26,-0.09 -0.54,-0.135 -0.85,-0.135 -0.52,0 -1.06,0.123 -1.6,0.368 -0.54,0.245 -1.07,0.612 -1.57,1.102 v -1.998 c 0.27,-0.197 0.53,-0.368 0.8,-0.511 0.27,-0.149 0.55,-0.272 0.83,-0.367 0.29,-0.102 0.59,-0.176 0.91,-0.224 0.31,-0.048 0.65,-0.072 1.01,-0.072 0.58,0 1.11,0.078 1.58,0.233 0.47,0.149 0.87,0.373 1.21,0.672 0.33,0.293 0.59,0.66 0.77,1.102 0.18,0.442 0.28,0.95 0.28,1.523 0,0.52 -0.07,0.989 -0.2,1.407 -0.13,0.412 -0.31,0.797 -0.55,1.156 -0.23,0.358 -0.51,0.698 -0.85,1.021 -0.33,0.322 -0.71,0.654 -1.12,0.994 -0.35,0.281 -0.69,0.556 -1.04,0.825 -0.34,0.262 -0.65,0.522 -0.92,0.779 -0.28,0.251 -0.5,0.505 -0.67,0.762 -0.17,0.251 -0.25,0.504 -0.25,0.761 v 0.045 h 5.79 z m 6.21,0.215 c -1.34,0 -2.38,-0.547 -3.13,-1.64 -0.75,-1.093 -1.12,-2.672 -1.12,-4.739 0,-2.27 0.39,-3.987 1.17,-5.152 0.78,-1.165 1.91,-1.747 3.39,-1.747 2.82,0 4.23,2.195 4.23,6.585 0,2.174 -0.4,3.835 -1.2,4.982 -0.79,1.141 -1.91,1.711 -3.34,1.711 z m 0.21,-11.62 c -1.56,0 -2.34,1.717 -2.34,5.151 0,3.214 0.76,4.82 2.29,4.82 1.51,0 2.26,-1.633 2.26,-4.9 0,-3.381 -0.74,-5.071 -2.21,-5.071 z M 1119.96,122 h -8.06 v -0.995 c 0,-0.406 0.06,-0.785 0.17,-1.137 0.11,-0.359 0.27,-0.693 0.46,-1.004 0.19,-0.316 0.41,-0.612 0.67,-0.887 0.26,-0.281 0.53,-0.549 0.82,-0.806 0.3,-0.263 0.6,-0.514 0.9,-0.753 0.3,-0.245 0.6,-0.49 0.9,-0.734 0.27,-0.233 0.52,-0.46 0.75,-0.681 0.23,-0.227 0.42,-0.46 0.58,-0.699 0.16,-0.239 0.29,-0.49 0.38,-0.753 0.09,-0.269 0.13,-0.558 0.13,-0.869 0,-0.34 -0.05,-0.636 -0.16,-0.887 -0.1,-0.257 -0.25,-0.469 -0.44,-0.636 -0.18,-0.173 -0.4,-0.302 -0.66,-0.385 -0.26,-0.09 -0.54,-0.135 -0.84,-0.135 -0.53,0 -1.06,0.123 -1.61,0.368 -0.54,0.245 -1.06,0.612 -1.57,1.102 v -1.998 c 0.27,-0.197 0.53,-0.368 0.8,-0.511 0.27,-0.149 0.55,-0.272 0.84,-0.367 0.28,-0.102 0.58,-0.176 0.9,-0.224 0.32,-0.048 0.65,-0.072 1.01,-0.072 0.58,0 1.11,0.078 1.58,0.233 0.47,0.149 0.87,0.373 1.21,0.672 0.33,0.293 0.59,0.66 0.77,1.102 0.18,0.442 0.28,0.95 0.28,1.523 0,0.52 -0.07,0.989 -0.2,1.407 -0.13,0.412 -0.31,0.797 -0.55,1.156 -0.23,0.358 -0.51,0.698 -0.85,1.021 -0.33,0.322 -0.71,0.654 -1.12,0.994 -0.34,0.281 -0.69,0.556 -1.04,0.825 -0.34,0.262 -0.64,0.522 -0.92,0.779 -0.27,0.251 -0.5,0.505 -0.67,0.762 -0.17,0.251 -0.25,0.504 -0.25,0.761 v 0.045 h 5.79 z m 9.56,-12.848 v 8.297 h 1.9 v 1.729 h -1.9 V 122 h -2.02 v -2.822 h -5.82 v -1.747 c 0.53,-0.592 1.07,-1.231 1.62,-1.918 0.55,-0.693 1.08,-1.397 1.59,-2.114 0.52,-0.723 0.99,-1.446 1.43,-2.168 0.43,-0.723 0.8,-1.416 1.1,-2.079 z m -2.02,8.297 v -5.394 c -0.65,1.171 -1.3,2.192 -1.94,3.064 -0.63,0.872 -1.22,1.649 -1.78,2.33 z"
       fill="#33312d"
       id="path5" />
    <path
       d="m 1381.88,122 h -2.33 l -6.14,-9.443 c -0.15,-0.239 -0.28,-0.487 -0.38,-0.744 h -0.06 c 0.05,0.275 0.07,0.863 0.07,1.765 V 122 h -2.06 v -12.848 h 2.48 l 5.94,9.219 c 0.25,0.383 0.41,0.645 0.48,0.789 h 0.04 c -0.06,-0.341 -0.09,-0.917 -0.09,-1.729 v -8.279 h 2.05 z m 7.02,0.215 c -1.41,0 -2.55,-0.427 -3.39,-1.281 -0.85,-0.86 -1.27,-1.998 -1.27,-3.414 0,-1.541 0.44,-2.744 1.32,-3.61 0.88,-0.867 2.07,-1.3 3.57,-1.3 1.43,0 2.55,0.422 3.35,1.264 0.8,0.842 1.2,2.01 1.2,3.503 0,1.463 -0.44,2.637 -1.3,3.521 -0.86,0.878 -2.02,1.317 -3.48,1.317 z m 0.1,-7.947 c -0.81,0 -1.45,0.284 -1.93,0.851 -0.47,0.568 -0.7,1.35 -0.7,2.347 0,0.962 0.24,1.721 0.71,2.276 0.48,0.55 1.12,0.824 1.92,0.824 0.82,0 1.45,-0.271 1.88,-0.815 0.44,-0.543 0.67,-1.317 0.67,-2.32 0,-1.01 -0.23,-1.789 -0.67,-2.339 -0.43,-0.549 -1.06,-0.824 -1.88,-0.824 z m 14.7,-1.443 -3.54,9.175 h -2.25 l -3.38,-9.175 h 2.26 l 2.03,6.415 c 0.16,0.472 0.25,0.884 0.29,1.237 h 0.02 c 0.06,-0.442 0.14,-0.842 0.25,-1.201 l 2.14,-6.451 z m 14.06,9.175 h -8.06 v -0.995 c 0,-0.406 0.05,-0.785 0.17,-1.137 0.11,-0.359 0.26,-0.693 0.45,-1.004 0.2,-0.316 0.42,-0.612 0.68,-0.887 0.25,-0.281 0.53,-0.549 0.82,-0.806 0.29,-0.263 0.59,-0.514 0.9,-0.753 0.3,-0.245 0.6,-0.49 0.89,-0.734 0.28,-0.233 0.53,-0.46 0.75,-0.681 0.23,-0.227 0.43,-0.46 0.59,-0.699 0.16,-0.239 0.28,-0.49 0.37,-0.753 0.09,-0.269 0.14,-0.558 0.14,-0.869 0,-0.34 -0.06,-0.636 -0.16,-0.887 -0.1,-0.257 -0.25,-0.469 -0.44,-0.636 -0.19,-0.173 -0.41,-0.302 -0.67,-0.385 -0.25,-0.09 -0.53,-0.135 -0.84,-0.135 -0.52,0 -1.06,0.123 -1.6,0.368 -0.54,0.245 -1.07,0.612 -1.57,1.102 v -1.998 c 0.26,-0.197 0.53,-0.368 0.8,-0.511 0.27,-0.149 0.54,-0.272 0.83,-0.367 0.29,-0.102 0.59,-0.176 0.91,-0.224 0.31,-0.048 0.65,-0.072 1.01,-0.072 0.58,0 1.1,0.078 1.58,0.233 0.47,0.149 0.87,0.373 1.21,0.672 0.33,0.293 0.59,0.66 0.77,1.102 0.18,0.442 0.27,0.95 0.27,1.523 0,0.52 -0.06,0.989 -0.19,1.407 -0.13,0.412 -0.31,0.797 -0.55,1.156 -0.23,0.358 -0.52,0.698 -0.85,1.021 -0.34,0.322 -0.71,0.654 -1.12,0.994 -0.35,0.281 -0.69,0.556 -1.04,0.825 -0.34,0.262 -0.65,0.522 -0.92,0.779 -0.28,0.251 -0.5,0.505 -0.68,0.762 -0.16,0.251 -0.25,0.504 -0.25,0.761 v 0.045 h 5.8 z m 6.21,0.215 c -1.34,0 -2.38,-0.547 -3.14,-1.64 -0.74,-1.093 -1.12,-2.672 -1.12,-4.739 0,-2.27 0.4,-3.987 1.18,-5.152 0.78,-1.165 1.91,-1.747 3.38,-1.747 2.83,0 4.24,2.195 4.24,6.585 0,2.174 -0.4,3.835 -1.2,4.982 -0.79,1.141 -1.91,1.711 -3.34,1.711 z m 0.21,-11.62 c -1.56,0 -2.34,1.717 -2.34,5.151 0,3.214 0.76,4.82 2.29,4.82 1.51,0 2.26,-1.633 2.26,-4.9 0,-3.381 -0.74,-5.071 -2.21,-5.071 z M 1438.15,122 h -8.06 v -0.995 c 0,-0.406 0.06,-0.785 0.17,-1.137 0.11,-0.359 0.26,-0.693 0.46,-1.004 0.19,-0.316 0.41,-0.612 0.67,-0.887 0.25,-0.281 0.53,-0.549 0.82,-0.806 0.29,-0.263 0.59,-0.514 0.9,-0.753 0.3,-0.245 0.6,-0.49 0.89,-0.734 0.28,-0.233 0.53,-0.46 0.76,-0.681 0.22,-0.227 0.42,-0.46 0.58,-0.699 0.16,-0.239 0.29,-0.49 0.38,-0.753 0.09,-0.269 0.13,-0.558 0.13,-0.869 0,-0.34 -0.05,-0.636 -0.16,-0.887 -0.1,-0.257 -0.25,-0.469 -0.44,-0.636 -0.19,-0.173 -0.41,-0.302 -0.66,-0.385 -0.26,-0.09 -0.54,-0.135 -0.85,-0.135 -0.52,0 -1.06,0.123 -1.6,0.368 -0.54,0.245 -1.07,0.612 -1.57,1.102 v -1.998 c 0.27,-0.197 0.53,-0.368 0.8,-0.511 0.27,-0.149 0.55,-0.272 0.83,-0.367 0.29,-0.102 0.59,-0.176 0.91,-0.224 0.31,-0.048 0.65,-0.072 1.01,-0.072 0.58,0 1.11,0.078 1.58,0.233 0.47,0.149 0.87,0.373 1.21,0.672 0.33,0.293 0.59,0.66 0.77,1.102 0.18,0.442 0.28,0.95 0.28,1.523 0,0.52 -0.07,0.989 -0.2,1.407 -0.13,0.412 -0.31,0.797 -0.55,1.156 -0.23,0.358 -0.51,0.698 -0.85,1.021 -0.33,0.322 -0.71,0.654 -1.12,0.994 -0.35,0.281 -0.69,0.556 -1.04,0.825 -0.34,0.262 -0.65,0.522 -0.92,0.779 -0.28,0.251 -0.5,0.505 -0.67,0.762 -0.17,0.251 -0.25,0.504 -0.25,0.761 v 0.045 h 5.79 z m 2.65,-0.296 v -1.998 c 0.84,0.568 1.69,0.852 2.56,0.852 0.87,0 1.57,-0.221 2.1,-0.663 0.53,-0.448 0.8,-1.043 0.8,-1.783 0,-0.729 -0.27,-1.297 -0.81,-1.703 -0.54,-0.406 -1.32,-0.609 -2.33,-0.609 -0.34,0 -1.04,0.036 -2.1,0.108 l 0.46,-6.756 h 6.32 v 1.774 h -4.59 l -0.22,3.217 c 0.41,-0.024 0.79,-0.036 1.12,-0.036 1.36,0 2.41,0.349 3.15,1.048 0.75,0.699 1.12,1.654 1.12,2.867 0,1.272 -0.42,2.294 -1.28,3.064 -0.85,0.765 -2.01,1.147 -3.5,1.147 -1.25,0 -2.19,-0.176 -2.8,-0.529 z"
       fill="#33312d"
       id="path6" />
    <path
       d="m 97.6754,96.5333 c -1.0158,0 -1.8791,-0.3302 -2.5901,-0.9904 -0.6856,-0.6856 -1.0285,-1.5617 -1.0285,-2.6282 0,-1.0665 0.3429,-1.9298 1.0285,-2.5901 0.711,-0.6856 1.5743,-1.0284 2.5901,-1.0284 1.0411,0 1.9045,0.3428 2.5896,1.0284 0.686,0.6603 1.029,1.5236 1.029,2.5901 0,1.0665 -0.343,1.9426 -1.029,2.6282 -0.6851,0.6602 -1.5485,0.9904 -2.5896,0.9904 z M 105.859,96 V 69.3372 h 9.561 l 5.294,23.2347 H 121.4 V 69.3372 h 4.951 V 96 h -9.56 l -5.295,-23.2347 h -0.685 V 96 Z m 25.517,0 V 69.3372 h 17.141 v 4.5708 h -12.113 v 6.3609 h 11.046 v 4.5708 h -11.046 v 6.5895 h 12.341 V 96 Z m 27.261,0 V 73.908 h -7.77 v -4.5708 h 20.569 v 4.5708 h -7.771 V 96 Z m 34.111,0.5333 c -2.032,0 -3.797,-0.3809 -5.295,-1.1427 -1.498,-0.7618 -2.653,-1.8156 -3.466,-3.1615 -0.813,-1.3458 -1.219,-2.8948 -1.219,-4.6469 v -9.1035 c 0,-2.1584 0.432,-3.9486 1.295,-5.3706 0.889,-1.4474 2.095,-2.5267 3.619,-3.2377 1.549,-0.711 3.314,-1.0665 5.294,-1.0665 1.981,0 3.695,0.3301 5.142,0.9904 1.473,0.6602 2.603,1.6124 3.39,2.8567 0.813,1.2443 1.219,2.7298 1.219,4.4565 h -4.952 c 0,-1.0665 -0.368,-1.9934 -1.104,-2.7806 -0.737,-0.7871 -1.968,-1.1807 -3.695,-1.1807 -1.701,0 -3.022,0.4443 -3.961,1.3331 -0.914,0.8888 -1.371,2.1203 -1.371,3.6947 v 2.7425 h 0.685 c 0.432,-0.5079 1.092,-0.9904 1.981,-1.4474 0.889,-0.4571 2.184,-0.6857 3.885,-0.6857 1.549,0 2.971,0.3302 4.266,0.9904 1.321,0.6602 2.387,1.6251 3.2,2.8948 0.812,1.2443 1.219,2.7551 1.219,4.5327 v 0.457 c 0,1.7522 -0.419,3.3012 -1.257,4.647 -0.838,1.3204 -2.019,2.3616 -3.543,3.1234 -1.523,0.7364 -3.301,1.1046 -5.332,1.1046 z m 0.076,-4.3423 c 1.6,0 2.857,-0.419 3.771,-1.2569 0.939,-0.838 1.409,-1.9553 1.409,-3.3519 v -0.3047 c 0,-0.9396 -0.216,-1.7522 -0.647,-2.4378 -0.407,-0.6856 -1.004,-1.2189 -1.791,-1.5998 -0.762,-0.3809 -1.676,-0.5713 -2.742,-0.5713 -1.041,0 -1.955,0.1904 -2.743,0.5713 -0.787,0.3809 -1.396,0.9142 -1.828,1.5998 -0.406,0.6856 -0.609,1.4982 -0.609,2.4378 v 0.3047 c 0,1.3966 0.457,2.5139 1.371,3.3519 0.939,0.8379 2.209,1.2569 3.809,1.2569 z"
       fill="#33312d"
       id="path7" />
    <path
       d="m 413.675,96.5333 c -1.015,0 -1.879,-0.3302 -2.59,-0.9904 -0.685,-0.6856 -1.028,-1.5617 -1.028,-2.6282 0,-1.0665 0.343,-1.9298 1.028,-2.5901 0.711,-0.6856 1.575,-1.0284 2.59,-1.0284 1.041,0 1.905,0.3428 2.59,1.0284 0.686,0.6603 1.029,1.5236 1.029,2.5901 0,1.0665 -0.343,1.9426 -1.029,2.6282 -0.685,0.6602 -1.549,0.9904 -2.59,0.9904 z M 421.859,96 V 69.3372 h 9.561 l 5.294,23.2347 H 437.4 V 69.3372 h 4.951 V 96 h -9.56 l -5.295,-23.2347 h -0.685 V 96 Z m 25.517,0 V 69.3372 h 17.141 v 4.5708 h -12.113 v 6.3609 h 11.046 v 4.5708 h -11.046 v 6.5895 h 12.341 V 96 Z m 27.261,0 V 73.908 h -7.77 v -4.5708 h 20.569 v 4.5708 h -7.771 V 96 Z m 27.216,0 v -0.9903 c 0,-0.9904 0.077,-1.8283 0.229,-2.514 0.152,-0.711 0.482,-1.5108 0.99,-2.3996 l 8.951,-15.8072 v -0.6095 h -14.169 v -4.3422 h 19.197 v 5.7896 l -9.446,16.8738 c -0.33,0.584 -0.559,1.1046 -0.686,1.5617 -0.127,0.457 -0.19,1.0157 -0.19,1.6759 V 96 Z"
       fill="#33312d"
       id="path8" />
    <path
       fill-rule="evenodd"
       clip-rule="evenodd"
       d="M 940,431 V 159 h 3 v 272 z"
       fill="#c5c1d2"
       fill-opacity="0.4"
       id="path9" />
    <rect
       x="1627"
       y="161.666"
       width="831"
       height="8.9814301"
       transform="rotate(180,1627,161.666)"
       fill="url(#paint0_linear_3731_131)"
       fill-opacity="0.4"
       id="rect9"
       style="fill:url(#paint0_linear_3731_131)" />
    <rect
       x="17"
       y="152.82401"
       width="752"
       height="8.9814301"
       fill="url(#paint1_linear_3731_131)"
       fill-opacity="0.4"
       id="rect10"
       style="fill:url(#paint1_linear_3731_131)" />
    <circle
       cx="148.65601"
       cy="156.92"
       r="9.17451"
       fill="#6c6c6c"
       id="circle10" />
    <circle
       cx="1094.17"
       cy="156.92"
       r="9.17451"
       fill="#6c6c6c"
       id="circle11" />
    <circle
       cx="464.03"
       cy="156.92"
       r="9.17451"
       fill="#6c6c6c"
       id="circle12" />
    <circle
       cx="1409.55"
       cy="156.92"
       r="9.17451"
       fill="#6c6c6c"
       id="circle13" />
    <circle
       cx="779.33899"
       cy="156.854"
       r="14.2698"
       stroke="#9715bf"
       stroke-width="8.0277"
       id="circle14" />
    <path
       d="m 726.675,96.5333 c -1.015,0 -1.879,-0.3302 -2.59,-0.9904 -0.685,-0.6856 -1.028,-1.5617 -1.028,-2.6282 0,-1.0665 0.343,-1.9298 1.028,-2.5901 0.711,-0.6856 1.575,-1.0284 2.59,-1.0284 1.041,0 1.905,0.3428 2.59,1.0284 0.686,0.6603 1.029,1.5236 1.029,2.5901 0,1.0665 -0.343,1.9426 -1.029,2.6282 -0.685,0.6602 -1.549,0.9904 -2.59,0.9904 z M 734.859,96 V 69.3372 h 9.561 l 5.294,23.2347 H 750.4 V 69.3372 h 4.951 V 96 h -9.56 l -5.295,-23.2347 h -0.685 V 96 Z m 25.517,0 V 69.3372 h 17.141 v 4.5708 h -12.113 v 6.3609 h 11.046 v 4.5708 h -11.046 v 6.5895 h 12.341 V 96 Z m 27.261,0 V 73.908 h -7.77 v -4.5708 h 20.569 v 4.5708 h -7.771 V 96 Z m 33.654,0.5333 c -2.032,0 -3.835,-0.3048 -5.409,-0.9142 -1.549,-0.6094 -2.768,-1.4855 -3.657,-2.6282 -0.863,-1.1681 -1.295,-2.5393 -1.295,-4.1137 v -0.4571 c 0,-1.2188 0.216,-2.2219 0.648,-3.009 0.431,-0.8126 0.965,-1.4475 1.599,-1.9045 0.661,-0.4571 1.283,-0.7745 1.867,-0.9523 v -0.6856 c -0.584,-0.2031 -1.168,-0.5332 -1.752,-0.9903 -0.584,-0.4571 -1.067,-1.0665 -1.448,-1.8283 -0.355,-0.7618 -0.533,-1.676 -0.533,-2.7425 v -0.4571 c 0,-1.3966 0.406,-2.6155 1.219,-3.6566 0.838,-1.0665 2.006,-1.8918 3.504,-2.4758 1.498,-0.6095 3.251,-0.9142 5.257,-0.9142 2.006,0 3.758,0.3047 5.256,0.9142 1.498,0.584 2.654,1.4093 3.466,2.4758 0.838,1.0411 1.257,2.26 1.257,3.6566 v 0.4571 c 0,1.0665 -0.19,1.9807 -0.571,2.7425 -0.356,0.7618 -0.826,1.3712 -1.41,1.8283 -0.558,0.4571 -1.142,0.7872 -1.752,0.9903 v 0.6856 c 0.61,0.1778 1.232,0.4952 1.867,0.9523 0.635,0.457 1.168,1.0919 1.599,1.9045 0.432,0.7871 0.648,1.7902 0.648,3.009 v 0.4571 c 0,1.5744 -0.444,2.9456 -1.333,4.1137 -0.864,1.1427 -2.082,2.0188 -3.657,2.6282 -1.549,0.6094 -3.339,0.9142 -5.37,0.9142 z m 0,-4.3423 c 1.752,0 3.098,-0.3301 4.037,-0.9903 0.965,-0.6856 1.447,-1.5871 1.447,-2.7044 v -0.3047 c 0,-1.1173 -0.469,-2.0061 -1.409,-2.6663 -0.914,-0.6856 -2.273,-1.0284 -4.075,-1.0284 -1.778,0 -3.136,0.3428 -4.076,1.0284 -0.94,0.6602 -1.409,1.549 -1.409,2.6663 v 0.3047 c 0,1.1173 0.469,2.0188 1.409,2.7044 0.965,0.6602 2.323,0.9903 4.076,0.9903 z m 0,-12.0363 c 1.625,0 2.882,-0.2921 3.77,-0.8761 0.889,-0.584 1.334,-1.4093 1.334,-2.4758 v -0.3047 c 0,-1.0666 -0.457,-1.8918 -1.372,-2.4759 -0.914,-0.584 -2.158,-0.876 -3.732,-0.876 -1.575,0 -2.819,0.292 -3.733,0.876 -0.914,0.5841 -1.371,1.4093 -1.371,2.4759 v 0.3047 c 0,1.0665 0.444,1.8918 1.333,2.4758 0.888,0.584 2.145,0.8761 3.771,0.8761 z"
       fill="url(#paint2_linear_3731_131)"
       id="path14"
       style="fill:url(#paint2_linear_3731_131)" />
    <path
       d="m 1041.68,96.5333 c -1.02,0 -1.88,-0.3302 -2.59,-0.9904 -0.69,-0.6856 -1.03,-1.5617 -1.03,-2.6282 0,-1.0665 0.34,-1.9298 1.03,-2.5901 0.71,-0.6856 1.57,-1.0284 2.59,-1.0284 1.04,0 1.9,0.3428 2.59,1.0284 0.68,0.6603 1.02,1.5236 1.02,2.5901 0,1.0665 -0.34,1.9426 -1.02,2.6282 -0.69,0.6602 -1.55,0.9904 -2.59,0.9904 z M 1049.86,96 V 69.3372 h 9.56 l 5.29,23.2347 h 0.69 V 69.3372 h 4.95 V 96 h -9.56 l -5.29,-23.2347 h -0.69 V 96 Z m 25.52,0 V 69.3372 h 17.14 v 4.5708 h -12.12 v 6.3609 h 11.05 v 4.5708 h -11.05 v 6.5895 h 12.35 V 96 Z m 27.26,0 V 73.908 h -7.77 v -4.5708 h 20.57 v 4.5708 h -7.77 V 96 Z m 33.65,0.5333 c -1.98,0 -3.71,-0.3302 -5.18,-0.9904 -1.45,-0.6602 -2.58,-1.6124 -3.39,-2.8567 -0.79,-1.2443 -1.18,-2.7298 -1.18,-4.4565 h 4.95 c 0,1.0665 0.37,1.9934 1.11,2.7805 0.76,0.7872 1.99,1.1808 3.69,1.1808 1.73,0 3.05,-0.4444 3.96,-1.3331 0.92,-0.9142 1.37,-2.1457 1.37,-3.6947 v -2.7425 h -0.68 c -0.43,0.5079 -1.09,0.9904 -1.98,1.4474 -0.87,0.4571 -2.16,0.6856 -3.89,0.6856 -1.52,0 -2.94,-0.3301 -4.26,-0.9903 -1.32,-0.6602 -2.39,-1.6125 -3.2,-2.8567 -0.82,-1.2697 -1.22,-2.7933 -1.22,-4.5708 v -0.4571 c 0,-1.7775 0.42,-3.3265 1.25,-4.6469 0.84,-1.3205 2.02,-2.3489 3.55,-3.0853 1.52,-0.7618 3.3,-1.1427 5.33,-1.1427 2.03,0 3.8,0.3809 5.29,1.1427 1.5,0.7618 2.66,1.8156 3.47,3.1615 0.81,1.3458 1.22,2.8948 1.22,4.6469 v 9.1035 c 0,2.1584 -0.45,3.9613 -1.33,5.4087 -0.87,1.422 -2.07,2.4885 -3.62,3.1995 -1.53,0.7111 -3.28,1.0666 -5.26,1.0666 z m 0.15,-13.8647 c 1.07,0 1.98,-0.1905 2.75,-0.5714 0.78,-0.3809 1.38,-0.9141 1.79,-1.5997 0.43,-0.6856 0.64,-1.4982 0.64,-2.4378 V 77.755 c 0,-1.422 -0.47,-2.5393 -1.41,-3.3519 -0.91,-0.838 -2.17,-1.2569 -3.77,-1.2569 -1.6,0 -2.87,0.4189 -3.81,1.2569 -0.91,0.8126 -1.37,1.9299 -1.37,3.3519 v 0.3047 c 0,0.9396 0.21,1.7522 0.61,2.4378 0.43,0.6856 1.04,1.2188 1.83,1.5997 0.79,0.3809 1.7,0.5714 2.74,0.5714 z"
       fill="#33312d"
       id="path15" />
    <path
       d="m 1359.68,96.5333 c -1.02,0 -1.88,-0.3302 -2.59,-0.9904 -0.69,-0.6856 -1.03,-1.5617 -1.03,-2.6282 0,-1.0665 0.34,-1.9298 1.03,-2.5901 0.71,-0.6856 1.57,-1.0284 2.59,-1.0284 1.04,0 1.9,0.3428 2.59,1.0284 0.68,0.6603 1.02,1.5236 1.02,2.5901 0,1.0665 -0.34,1.9426 -1.02,2.6282 -0.69,0.6602 -1.55,0.9904 -2.59,0.9904 z M 1367.86,96 V 69.3372 h 9.56 l 5.29,23.2347 h 0.69 V 69.3372 h 4.95 V 96 h -9.56 l -5.29,-23.2347 h -0.69 V 96 Z m 25.52,0 V 69.3372 h 17.14 v 4.5708 h -12.12 v 6.3609 h 11.05 v 4.5708 h -11.05 v 6.5895 h 12.35 V 96 Z m 27.26,0 V 73.908 h -7.77 v -4.5708 h 20.57 v 4.5708 h -7.77 V 96 Z m 32.05,0 V 72.9176 h -0.68 l -3.59,8.4559 h -5.1 l 5.45,-12.0363 h 8.8 V 96 Z m 19.74,0.5333 c -3.15,0 -5.68,-0.8634 -7.58,-2.5901 -1.91,-1.7522 -2.86,-4.3931 -2.86,-7.9227 v -6.7038 c 0,-3.4281 0.95,-6.0309 2.86,-7.8084 1.9,-1.8029 4.43,-2.7044 7.58,-2.7044 3.17,0 5.7,0.9015 7.58,2.7044 1.9,1.7775 2.85,4.3803 2.85,7.8084 v 6.7038 c 0,3.5296 -0.95,6.1705 -2.85,7.9227 -1.88,1.7267 -4.41,2.5901 -7.58,2.5901 z m 0,-4.3423 c 1.9,0 3.3,-0.5205 4.19,-1.5617 0.91,-1.0411 1.37,-2.5266 1.37,-4.4565 v -7.0846 c 0,-1.9553 -0.51,-3.4281 -1.53,-4.4185 -0.99,-1.0157 -2.33,-1.5235 -4.03,-1.5235 -1.76,0 -3.13,0.5205 -4.12,1.5616 -0.96,1.0412 -1.44,2.5013 -1.44,4.3804 v 7.0846 c 0,2.0061 0.45,3.517 1.37,4.5327 0.94,0.9904 2.33,1.4855 4.19,1.4855 z"
       fill="#33312d"
       id="path16" />
    <path
       fill-rule="evenodd"
       clip-rule="evenodd"
       d="m 148.245,172 c 1.24,0 2.246,1.005 2.246,2.245 v 0.319 c 0,1.24 -1.006,2.245 -2.246,2.245 -1.24,0 -2.245,-1.005 -2.245,-2.245 v -0.319 c 0,-1.24 1.005,-2.245 2.245,-2.245 z m 0,13.057 c 1.24,0 2.246,1.005 2.246,2.245 v 0.637 c 0,1.24 -1.006,2.246 -2.246,2.246 -1.24,0 -2.245,-1.006 -2.245,-2.246 v -0.637 c 0,-1.24 1.005,-2.245 2.245,-2.245 z m 0,13.375 c 1.24,0 2.246,1.006 2.246,2.246 v 0.637 c 0,1.24 -1.006,2.245 -2.246,2.245 -1.24,0 -2.245,-1.005 -2.245,-2.245 v -0.637 c 0,-1.24 1.005,-2.246 2.245,-2.246 z m 0,13.376 c 1.24,0 2.246,1.005 2.246,2.245 v 0.637 c 0,1.24 -1.006,2.246 -2.246,2.246 -1.24,0 -2.245,-1.006 -2.245,-2.246 v -0.637 c 0,-1.24 1.005,-2.245 2.245,-2.245 z m 0,13.375 c 1.24,0 2.246,1.006 2.246,2.246 v 0.637 c 0,1.24 -1.006,2.245 -2.246,2.245 -1.24,0 -2.245,-1.005 -2.245,-2.245 v -0.637 c 0,-1.24 1.005,-2.246 2.245,-2.246 z m 0,13.376 c 1.24,0 2.246,1.005 2.246,2.245 v 0.637 c 0,1.24 -1.006,2.246 -2.246,2.246 -1.24,0 -2.245,-1.006 -2.245,-2.246 v -0.637 c 0,-1.24 1.005,-2.245 2.245,-2.245 z m 0,13.375 c 1.24,0 2.246,1.006 2.246,2.246 v 0.637 c 0,1.24 -1.006,2.245 -2.246,2.245 -1.24,0 -2.245,-1.005 -2.245,-2.245 v -0.637 c 0,-1.24 1.005,-2.246 2.245,-2.246 z m 0,13.376 c 1.24,0 2.246,1.005 2.246,2.245 v 0.637 c 0,1.24 -1.006,2.245 -2.246,2.245 -1.24,0 -2.245,-1.005 -2.245,-2.245 v -0.637 c 0,-1.24 1.005,-2.245 2.245,-2.245 z m 0,13.375 c 1.24,0 2.246,1.006 2.246,2.246 v 0.637 c 0,1.24 -1.006,2.245 -2.246,2.245 -1.24,0 -2.245,-1.005 -2.245,-2.245 v -0.637 c 0,-1.24 1.005,-2.246 2.245,-2.246 z m 0,13.376 c 1.24,0 2.246,1.005 2.246,2.245 v 0.637 c 0,1.24 -1.006,2.245 -2.246,2.245 -1.24,0 -2.245,-1.005 -2.245,-2.245 v -0.637 c 0,-1.24 1.005,-2.245 2.245,-2.245 z m 0,13.375 c 1.24,0 2.246,1.005 2.246,2.246 v 0.636 c 0,1.241 -1.006,2.246 -2.246,2.246 -1.24,0 -2.245,-1.005 -2.245,-2.246 v -0.636 c 0,-1.241 1.005,-2.246 2.245,-2.246 z m 0,13.376 c 1.24,0 2.246,1.005 2.246,2.245 v 0.637 c 0,1.24 -1.006,2.245 -2.246,2.245 -1.24,0 -2.245,-1.005 -2.245,-2.245 v -0.637 c 0,-1.24 1.005,-2.245 2.245,-2.245 z m 0,13.375 c 1.24,0 2.246,1.005 2.246,2.245 v 0.637 c 0,1.24 -1.006,2.246 -2.246,2.246 -1.24,0 -2.245,-1.006 -2.245,-2.246 v -0.637 c 0,-1.24 1.005,-2.245 2.245,-2.245 z m 0,13.376 c 1.24,0 2.246,1.005 2.246,2.245 v 0.637 c 0,1.24 -1.006,2.245 -2.246,2.245 -1.24,0 -2.245,-1.005 -2.245,-2.245 v -0.637 c 0,-1.24 1.005,-2.245 2.245,-2.245 z m 0,13.375 c 1.24,0 2.246,1.005 2.246,2.245 v 0.637 c 0,1.24 -1.006,2.246 -2.246,2.246 -1.24,0 -2.245,-1.006 -2.245,-2.246 v -0.637 c 0,-1.24 1.005,-2.245 2.245,-2.245 z m 0,13.376 c 1.24,0 2.246,1.005 2.246,2.245 v 0.637 c 0,1.24 -1.006,2.245 -2.246,2.245 -1.24,0 -2.245,-1.005 -2.245,-2.245 v -0.637 c 0,-1.24 1.005,-2.245 2.245,-2.245 z m 0,13.375 c 1.24,0 2.246,1.005 2.246,2.245 v 0.637 c 0,1.24 -1.006,2.246 -2.246,2.246 -1.24,0 -2.245,-1.006 -2.245,-2.246 v -0.637 c 0,-1.24 1.005,-2.245 2.245,-2.245 z m 0,13.375 c 1.24,0 2.246,1.006 2.246,2.246 v 0.637 c 0,1.24 -1.006,2.245 -2.246,2.245 -1.24,0 -2.245,-1.005 -2.245,-2.245 v -0.637 c 0,-1.24 1.005,-2.246 2.245,-2.246 z m 0,13.376 c 1.24,0 2.246,1.005 2.246,2.245 v 0.637 c 0,1.24 -1.006,2.246 -2.246,2.246 -1.24,0 -2.245,-1.006 -2.245,-2.246 v -0.637 c 0,-1.24 1.005,-2.245 2.245,-2.245 z m 0,13.375 c 1.24,0 2.246,1.006 2.246,2.246 v 0.637 c 0,1.24 -1.006,2.245 -2.246,2.245 -1.24,0 -2.245,-1.005 -2.245,-2.245 v -0.637 c 0,-1.24 1.005,-2.246 2.245,-2.246 z m 0,13.376 c 1.24,0 2.246,1.005 2.246,2.245 v 0.319 c 0,1.24 -1.006,2.245 -2.246,2.245 -1.24,0 -2.245,-1.005 -2.245,-2.245 v -0.319 c 0,-1.24 1.005,-2.245 2.245,-2.245 z"
       fill="#c5c1d2"
       id="path17" />
    <path
       fill-rule="evenodd"
       clip-rule="evenodd"
       d="m 464.245,172 c 1.24,0 2.246,1.005 2.246,2.245 v 0.326 c 0,1.24 -1.006,2.245 -2.246,2.245 -1.24,0 -2.245,-1.005 -2.245,-2.245 v -0.326 c 0,-1.24 1.005,-2.245 2.245,-2.245 z m 0,13.332 c 1.24,0 2.246,1.005 2.246,2.245 v 0.65 c 0,1.24 -1.006,2.246 -2.246,2.246 -1.24,0 -2.245,-1.006 -2.245,-2.246 v -0.65 c 0,-1.24 1.005,-2.245 2.245,-2.245 z m 0,13.656 c 1.24,0 2.246,1.006 2.246,2.246 v 0.65 c 0,1.24 -1.006,2.246 -2.246,2.246 -1.24,0 -2.245,-1.006 -2.245,-2.246 v -0.65 c 0,-1.24 1.005,-2.246 2.245,-2.246 z m 0,13.657 c 1.24,0 2.246,1.006 2.246,2.246 v 0.65 c 0,1.24 -1.006,2.245 -2.246,2.245 -1.24,0 -2.245,-1.005 -2.245,-2.245 v -0.65 c 0,-1.24 1.005,-2.246 2.245,-2.246 z m 0,13.657 c 1.24,0 2.246,1.005 2.246,2.246 v 0.65 c 0,1.24 -1.006,2.245 -2.246,2.245 -1.24,0 -2.245,-1.005 -2.245,-2.245 v -0.65 c 0,-1.241 1.005,-2.246 2.245,-2.246 z m 0,13.657 c 1.24,0 2.246,1.005 2.246,2.245 v 0.651 c 0,1.24 -1.006,2.245 -2.246,2.245 -1.24,0 -2.245,-1.005 -2.245,-2.245 v -0.651 c 0,-1.24 1.005,-2.245 2.245,-2.245 z m 0,13.657 c 1.24,0 2.246,1.005 2.246,2.245 v 0.65 c 0,1.241 -1.006,2.246 -2.246,2.246 -1.24,0 -2.245,-1.005 -2.245,-2.246 v -0.65 c 0,-1.24 1.005,-2.245 2.245,-2.245 z m 0,13.657 c 1.24,0 2.246,1.005 2.246,2.245 v 0.65 c 0,1.24 -1.006,2.246 -2.246,2.246 -1.24,0 -2.245,-1.006 -2.245,-2.246 v -0.65 c 0,-1.24 1.005,-2.245 2.245,-2.245 z m 0,13.656 c 1.24,0 2.246,1.006 2.246,2.246 v 0.65 c 0,1.24 -1.006,2.246 -2.246,2.246 -1.24,0 -2.245,-1.006 -2.245,-2.246 v -0.65 c 0,-1.24 1.005,-2.246 2.245,-2.246 z m 0,13.657 c 1.24,0 2.246,1.006 2.246,2.246 v 0.65 c 0,1.24 -1.006,2.245 -2.246,2.245 -1.24,0 -2.245,-1.005 -2.245,-2.245 v -0.65 c 0,-1.24 1.005,-2.246 2.245,-2.246 z m 0,13.657 c 1.24,0 2.246,1.005 2.246,2.245 v 0.651 c 0,1.24 -1.006,2.245 -2.246,2.245 -1.24,0 -2.245,-1.005 -2.245,-2.245 v -0.651 c 0,-1.24 1.005,-2.245 2.245,-2.245 z m 0,13.657 c 1.24,0 2.246,1.005 2.246,2.245 v 0.651 c 0,1.24 -1.006,2.245 -2.246,2.245 -1.24,0 -2.245,-1.005 -2.245,-2.245 v -0.651 c 0,-1.24 1.005,-2.245 2.245,-2.245 z m 0,13.657 c 1.24,0 2.246,1.005 2.246,2.245 v 0.65 c 0,1.241 -1.006,2.246 -2.246,2.246 -1.24,0 -2.245,-1.005 -2.245,-2.246 v -0.65 c 0,-1.24 1.005,-2.245 2.245,-2.245 z m 0,13.657 c 1.24,0 2.246,1.005 2.246,2.245 v 0.65 c 0,1.24 -1.006,2.246 -2.246,2.246 -1.24,0 -2.245,-1.006 -2.245,-2.246 v -0.65 c 0,-1.24 1.005,-2.245 2.245,-2.245 z m 0,13.656 c 1.24,0 2.246,1.006 2.246,2.246 v 0.65 c 0,1.24 -1.006,2.245 -2.246,2.245 -1.24,0 -2.245,-1.005 -2.245,-2.245 v -0.65 c 0,-1.24 1.005,-2.246 2.245,-2.246 z m 0,13.657 c 1.24,0 2.246,1.006 2.246,2.246 v 0.65 c 0,1.24 -1.006,2.245 -2.246,2.245 -1.24,0 -2.245,-1.005 -2.245,-2.245 v -0.65 c 0,-1.24 1.005,-2.246 2.245,-2.246 z m 0,13.657 c 1.24,0 2.246,1.005 2.246,2.245 v 0.326 c 0,1.24 -1.006,2.245 -2.246,2.245 -1.24,0 -2.245,-1.005 -2.245,-2.245 v -0.326 c 0,-1.24 1.005,-2.245 2.245,-2.245 z"
       fill="#c5c1d2"
       id="path18" />
    <path
       fill-rule="evenodd"
       clip-rule="evenodd"
       d="m 1094.25,172 c 1.24,0 2.24,1.005 2.24,2.245 v 0.312 c 0,1.24 -1,2.245 -2.24,2.245 -1.24,0 -2.25,-1.005 -2.25,-2.245 v -0.312 c 0,-1.24 1.01,-2.245 2.25,-2.245 z m 0,12.773 c 1.24,0 2.24,1.006 2.24,2.246 v 0.623 c 0,1.24 -1,2.245 -2.24,2.245 -1.24,0 -2.25,-1.005 -2.25,-2.245 v -0.623 c 0,-1.24 1.01,-2.246 2.25,-2.246 z m 0,13.085 c 1.24,0 2.24,1.005 2.24,2.246 v 0.623 c 0,1.24 -1,2.245 -2.24,2.245 -1.24,0 -2.25,-1.005 -2.25,-2.245 v -0.623 c 0,-1.241 1.01,-2.246 2.25,-2.246 z m 0,13.085 c 1.24,0 2.24,1.005 2.24,2.245 v 0.624 c 0,1.24 -1,2.245 -2.24,2.245 -1.24,0 -2.25,-1.005 -2.25,-2.245 v -0.624 c 0,-1.24 1.01,-2.245 2.25,-2.245 z m 0,13.085 c 1.24,0 2.24,1.005 2.24,2.245 v 0.623 c 0,1.241 -1,2.246 -2.24,2.246 -1.24,0 -2.25,-1.005 -2.25,-2.246 v -0.623 c 0,-1.24 1.01,-2.245 2.25,-2.245 z m 0,13.085 c 1.24,0 2.24,1.005 2.24,2.245 v 0.623 c 0,1.24 -1,2.246 -2.24,2.246 -1.24,0 -2.25,-1.006 -2.25,-2.246 v -0.623 c 0,-1.24 1.01,-2.245 2.25,-2.245 z m 0,13.085 c 1.24,0 2.24,1.005 2.24,2.245 v 0.312 c 0,1.24 -1,2.245 -2.24,2.245 -1.24,0 -2.25,-1.005 -2.25,-2.245 v -0.312 c 0,-1.24 1.01,-2.245 2.25,-2.245 z"
       fill="#c5c1d2"
       id="path19" />
    <path
       fill-rule="evenodd"
       clip-rule="evenodd"
       d="m 1409.25,172 c 1.24,0 2.24,1.005 2.24,2.245 v 0.352 c 0,1.24 -1,2.245 -2.24,2.245 -1.24,0 -2.25,-1.005 -2.25,-2.245 v -0.352 c 0,-1.24 1.01,-2.245 2.25,-2.245 z m 0,14.403 c 1.24,0 2.24,1.006 2.24,2.246 v 0.702 c 0,1.24 -1,2.246 -2.24,2.246 -1.24,0 -2.25,-1.006 -2.25,-2.246 v -0.702 c 0,-1.24 1.01,-2.246 2.25,-2.246 z m 0,14.755 c 1.24,0 2.24,1.005 2.24,2.245 v 0.352 c 0,1.24 -1,2.245 -2.24,2.245 -1.24,0 -2.25,-1.005 -2.25,-2.245 v -0.352 c 0,-1.24 1.01,-2.245 2.25,-2.245 z"
       fill="#c5c1d2"
       id="path20" />
    <path
       fill-rule="evenodd"
       clip-rule="evenodd"
       d="m 779.245,180 c 1.24,0 2.246,1.005 2.246,2.245 v 0.317 c 0,1.24 -1.006,2.245 -2.246,2.245 -1.24,0 -2.245,-1.005 -2.245,-2.245 v -0.317 c 0,-1.24 1.005,-2.245 2.245,-2.245 z m 0,12.963 c 1.24,0 2.246,1.005 2.246,2.245 v 0.632 c 0,1.24 -1.006,2.246 -2.246,2.246 -1.24,0 -2.245,-1.006 -2.245,-2.246 v -0.632 c 0,-1.24 1.005,-2.245 2.245,-2.245 z m 0,13.278 c 1.24,0 2.246,1.006 2.246,2.246 v 0.632 c 0,1.24 -1.006,2.245 -2.246,2.245 -1.24,0 -2.245,-1.005 -2.245,-2.245 v -0.632 c 0,-1.24 1.005,-2.246 2.245,-2.246 z m 0,13.279 c 1.24,0 2.246,1.006 2.246,2.246 v 0.632 c 0,1.24 -1.006,2.245 -2.246,2.245 -1.24,0 -2.245,-1.005 -2.245,-2.245 v -0.632 c 0,-1.24 1.005,-2.246 2.245,-2.246 z m 0,13.279 c 1.24,0 2.246,1.005 2.246,2.245 v 0.633 c 0,1.24 -1.006,2.245 -2.246,2.245 -1.24,0 -2.245,-1.005 -2.245,-2.245 v -0.633 c 0,-1.24 1.005,-2.245 2.245,-2.245 z m 0,13.279 c 1.24,0 2.246,1.005 2.246,2.245 v 0.633 c 0,1.24 -1.006,2.245 -2.246,2.245 -1.24,0 -2.245,-1.005 -2.245,-2.245 v -0.633 c 0,-1.24 1.005,-2.245 2.245,-2.245 z m 0,13.279 c 1.24,0 2.246,1.005 2.246,2.245 v 0.632 c 0,1.24 -1.006,2.246 -2.246,2.246 -1.24,0 -2.245,-1.006 -2.245,-2.246 v -0.632 c 0,-1.24 1.005,-2.245 2.245,-2.245 z m 0,13.279 c 1.24,0 2.246,1.005 2.246,2.245 v 0.632 c 0,1.24 -1.006,2.246 -2.246,2.246 -1.24,0 -2.245,-1.006 -2.245,-2.246 v -0.632 c 0,-1.24 1.005,-2.245 2.245,-2.245 z m 0,13.278 c 1.24,0 2.246,1.006 2.246,2.246 v 0.632 c 0,1.24 -1.006,2.245 -2.246,2.245 -1.24,0 -2.245,-1.005 -2.245,-2.245 v -0.632 c 0,-1.24 1.005,-2.246 2.245,-2.246 z m 0,13.279 c 1.24,0 2.246,1.005 2.246,2.245 v 0.317 c 0,1.24 -1.006,2.245 -2.246,2.245 -1.24,0 -2.245,-1.005 -2.245,-2.245 v -0.317 c 0,-1.24 1.005,-2.245 2.245,-2.245 z"
       fill="#9715bf"
       id="path21" />
    <path
       d="m 777,385 h 952 c 5.52,0 10,-4.477 10,-10 v -54 c 0,-5.523 -4.48,-10 -10,-10 H 777 Z"
       fill="url(#paint3_linear_3731_131)"
       id="path22"
       style="fill:url(#paint3_linear_3731_131)" />
    <path
       d="m 799.848,358.465 v -19.6 h 3.696 v 16.24 h 8.96 v 3.36 z m 19.6,0.392 c -0.99,0 -1.876,-0.168 -2.66,-0.504 -0.784,-0.355 -1.41,-0.859 -1.876,-1.512 -0.448,-0.672 -0.672,-1.484 -0.672,-2.436 0,-0.952 0.224,-1.745 0.672,-2.38 0.466,-0.653 1.101,-1.139 1.904,-1.456 0.821,-0.336 1.754,-0.504 2.8,-0.504 h 3.808 v -0.784 c 0,-0.653 -0.206,-1.185 -0.616,-1.596 -0.411,-0.429 -1.064,-0.644 -1.96,-0.644 -0.878,0 -1.531,0.205 -1.96,0.616 -0.43,0.392 -0.71,0.905 -0.84,1.54 l -3.248,-1.092 c 0.224,-0.709 0.578,-1.353 1.064,-1.932 0.504,-0.597 1.166,-1.073 1.988,-1.428 0.84,-0.373 1.857,-0.56 3.052,-0.56 1.829,0 3.276,0.457 4.34,1.372 1.064,0.915 1.596,2.24 1.596,3.976 v 5.18 c 0,0.56 0.261,0.84 0.784,0.84 h 1.12 v 2.912 h -2.352 c -0.691,0 -1.26,-0.168 -1.708,-0.504 -0.448,-0.336 -0.672,-0.784 -0.672,-1.344 v -0.028 h -0.532 c -0.075,0.224 -0.243,0.523 -0.504,0.896 -0.262,0.355 -0.672,0.672 -1.232,0.952 -0.56,0.28 -1.326,0.42 -2.296,0.42 z m 0.616,-2.856 c 0.989,0 1.792,-0.271 2.408,-0.812 0.634,-0.56 0.952,-1.297 0.952,-2.212 v -0.28 h -3.556 c -0.654,0 -1.167,0.14 -1.54,0.42 -0.374,0.28 -0.56,0.672 -0.56,1.176 0,0.504 0.196,0.915 0.588,1.232 0.392,0.317 0.961,0.476 1.708,0.476 z m 15.568,2.464 c -0.915,0 -1.662,-0.28 -2.24,-0.84 -0.56,-0.579 -0.84,-1.344 -0.84,-2.296 v -7.84 h -3.472 v -2.912 h 3.472 v -4.312 h 3.528 v 4.312 h 3.808 v 2.912 h -3.808 v 7.224 c 0,0.56 0.261,0.84 0.784,0.84 h 2.688 v 2.912 z m 13.285,0.392 c -1.381,0 -2.604,-0.289 -3.668,-0.868 -1.045,-0.597 -1.867,-1.428 -2.464,-2.492 -0.579,-1.083 -0.868,-2.352 -0.868,-3.808 v -0.336 c 0,-1.456 0.289,-2.716 0.868,-3.78 0.579,-1.083 1.391,-1.913 2.436,-2.492 1.045,-0.597 2.259,-0.896 3.64,-0.896 1.363,0 2.548,0.308 3.556,0.924 1.008,0.597 1.792,1.437 2.352,2.52 0.56,1.064 0.84,2.305 0.84,3.724 v 1.204 h -10.108 c 0.037,0.952 0.392,1.727 1.064,2.324 0.672,0.597 1.493,0.896 2.464,0.896 0.989,0 1.717,-0.215 2.184,-0.644 0.467,-0.429 0.821,-0.905 1.064,-1.428 l 2.884,1.512 c -0.261,0.485 -0.644,1.017 -1.148,1.596 -0.485,0.56 -1.139,1.045 -1.96,1.456 -0.821,0.392 -1.867,0.588 -3.136,0.588 z m -3.388,-8.932 h 6.496 c -0.075,-0.803 -0.401,-1.447 -0.98,-1.932 -0.56,-0.485 -1.297,-0.728 -2.212,-0.728 -0.952,0 -1.708,0.243 -2.268,0.728 -0.56,0.485 -0.905,1.129 -1.036,1.932 z m 18.988,8.932 c -1.811,0 -3.295,-0.392 -4.452,-1.176 -1.157,-0.784 -1.857,-1.904 -2.1,-3.36 l 3.248,-0.84 c 0.131,0.653 0.345,1.167 0.644,1.54 0.317,0.373 0.7,0.644 1.148,0.812 0.467,0.149 0.971,0.224 1.512,0.224 0.821,0 1.428,-0.14 1.82,-0.42 0.392,-0.299 0.588,-0.663 0.588,-1.092 0,-0.429 -0.187,-0.756 -0.56,-0.98 -0.373,-0.243 -0.971,-0.439 -1.792,-0.588 l -0.784,-0.14 c -0.971,-0.187 -1.857,-0.439 -2.66,-0.756 -0.803,-0.336 -1.447,-0.793 -1.932,-1.372 -0.485,-0.579 -0.728,-1.325 -0.728,-2.24 0,-1.381 0.504,-2.436 1.512,-3.164 1.008,-0.747 2.333,-1.12 3.976,-1.12 1.549,0 2.837,0.345 3.864,1.036 1.027,0.691 1.699,1.596 2.016,2.716 l -3.276,1.008 c -0.149,-0.709 -0.457,-1.213 -0.924,-1.512 -0.448,-0.299 -1.008,-0.448 -1.68,-0.448 -0.672,0 -1.185,0.121 -1.54,0.364 -0.355,0.224 -0.532,0.541 -0.532,0.952 0,0.448 0.187,0.784 0.56,1.008 0.373,0.205 0.877,0.364 1.512,0.476 l 0.784,0.14 c 1.045,0.187 1.988,0.439 2.828,0.756 0.859,0.299 1.531,0.737 2.016,1.316 0.504,0.56 0.756,1.325 0.756,2.296 0,1.456 -0.532,2.585 -1.596,3.388 -1.045,0.784 -2.455,1.176 -4.228,1.176 z m 13.962,-0.392 c -0.914,0 -1.661,-0.28 -2.24,-0.84 -0.56,-0.579 -0.84,-1.344 -0.84,-2.296 v -7.84 h -3.472 v -2.912 h 3.472 v -4.312 h 3.528 v 4.312 h 3.808 v 2.912 h -3.808 v 7.224 c 0,0.56 0.262,0.84 0.784,0.84 h 2.688 v 2.912 z m 14.559,0 v -13.888 h 3.472 v 1.568 h 0.504 c 0.205,-0.56 0.541,-0.971 1.008,-1.232 0.485,-0.261 1.045,-0.392 1.68,-0.392 h 1.68 v 3.136 h -1.736 c -0.896,0 -1.633,0.243 -2.212,0.728 -0.579,0.467 -0.868,1.195 -0.868,2.184 v 7.896 z m 16.938,0.392 c -1.382,0 -2.604,-0.289 -3.668,-0.868 -1.046,-0.597 -1.867,-1.428 -2.464,-2.492 -0.579,-1.083 -0.868,-2.352 -0.868,-3.808 v -0.336 c 0,-1.456 0.289,-2.716 0.868,-3.78 0.578,-1.083 1.39,-1.913 2.436,-2.492 1.045,-0.597 2.258,-0.896 3.639,-0.896 1.363,0 2.549,0.308 3.557,0.924 1.008,0.597 1.792,1.437 2.351,2.52 0.561,1.064 0.841,2.305 0.841,3.724 v 1.204 H 906.56 c 0.037,0.952 0.392,1.727 1.064,2.324 0.672,0.597 1.493,0.896 2.464,0.896 0.989,0 1.717,-0.215 2.184,-0.644 0.466,-0.429 0.821,-0.905 1.064,-1.428 l 2.884,1.512 c -0.262,0.485 -0.644,1.017 -1.148,1.596 -0.486,0.56 -1.139,1.045 -1.96,1.456 -0.822,0.392 -1.867,0.588 -3.136,0.588 z m -3.388,-8.932 h 6.496 c -0.075,-0.803 -0.402,-1.447 -0.98,-1.932 -0.56,-0.485 -1.298,-0.728 -2.212,-0.728 -0.952,0 -1.708,0.243 -2.268,0.728 -0.56,0.485 -0.906,1.129 -1.036,1.932 z m 13.22,8.54 v -19.6 h 3.528 v 19.6 z m 13.765,0.392 c -1.381,0 -2.604,-0.289 -3.668,-0.868 -1.045,-0.597 -1.867,-1.428 -2.464,-2.492 -0.579,-1.083 -0.868,-2.352 -0.868,-3.808 v -0.336 c 0,-1.456 0.289,-2.716 0.868,-3.78 0.579,-1.083 1.391,-1.913 2.436,-2.492 1.045,-0.597 2.259,-0.896 3.64,-0.896 1.363,0 2.548,0.308 3.556,0.924 1.008,0.597 1.792,1.437 2.352,2.52 0.56,1.064 0.84,2.305 0.84,3.724 v 1.204 h -10.108 c 0.037,0.952 0.392,1.727 1.064,2.324 0.672,0.597 1.493,0.896 2.464,0.896 0.989,0 1.717,-0.215 2.184,-0.644 0.467,-0.429 0.821,-0.905 1.064,-1.428 l 2.884,1.512 c -0.261,0.485 -0.644,1.017 -1.148,1.596 -0.485,0.56 -1.139,1.045 -1.96,1.456 -0.821,0.392 -1.867,0.588 -3.136,0.588 z m -3.388,-8.932 h 6.496 c -0.075,-0.803 -0.401,-1.447 -0.98,-1.932 -0.56,-0.485 -1.297,-0.728 -2.212,-0.728 -0.952,0 -1.708,0.243 -2.268,0.728 -0.56,0.485 -0.905,1.129 -1.036,1.932 z m 17.532,8.932 c -0.989,0 -1.876,-0.168 -2.66,-0.504 -0.784,-0.355 -1.409,-0.859 -1.876,-1.512 -0.448,-0.672 -0.672,-1.484 -0.672,-2.436 0,-0.952 0.224,-1.745 0.672,-2.38 0.467,-0.653 1.102,-1.139 1.904,-1.456 0.822,-0.336 1.755,-0.504 2.8,-0.504 h 3.808 v -0.784 c 0,-0.653 -0.205,-1.185 -0.616,-1.596 -0.41,-0.429 -1.064,-0.644 -1.96,-0.644 -0.877,0 -1.53,0.205 -1.96,0.616 -0.429,0.392 -0.709,0.905 -0.84,1.54 l -3.248,-1.092 c 0.224,-0.709 0.579,-1.353 1.064,-1.932 0.504,-0.597 1.167,-1.073 1.988,-1.428 0.84,-0.373 1.858,-0.56 3.052,-0.56 1.83,0 3.276,0.457 4.34,1.372 1.064,0.915 1.596,2.24 1.596,3.976 v 5.18 c 0,0.56 0.262,0.84 0.784,0.84 h 1.12 v 2.912 h -2.352 c -0.69,0 -1.26,-0.168 -1.708,-0.504 -0.448,-0.336 -0.672,-0.784 -0.672,-1.344 v -0.028 h -0.532 c -0.074,0.224 -0.242,0.523 -0.504,0.896 -0.261,0.355 -0.672,0.672 -1.232,0.952 -0.56,0.28 -1.325,0.42 -2.296,0.42 z m 0.616,-2.856 c 0.99,0 1.792,-0.271 2.408,-0.812 0.635,-0.56 0.952,-1.297 0.952,-2.212 v -0.28 h -3.556 c -0.653,0 -1.166,0.14 -1.54,0.42 -0.373,0.28 -0.56,0.672 -0.56,1.176 0,0.504 0.196,0.915 0.588,1.232 0.392,0.317 0.962,0.476 1.708,0.476 z m 16.918,2.856 c -1.81,0 -3.294,-0.392 -4.452,-1.176 -1.157,-0.784 -1.857,-1.904 -2.1,-3.36 l 3.248,-0.84 c 0.131,0.653 0.346,1.167 0.644,1.54 0.318,0.373 0.7,0.644 1.148,0.812 0.467,0.149 0.971,0.224 1.512,0.224 0.822,0 1.428,-0.14 1.82,-0.42 0.392,-0.299 0.588,-0.663 0.588,-1.092 0,-0.429 -0.186,-0.756 -0.56,-0.98 -0.373,-0.243 -0.97,-0.439 -1.792,-0.588 l -0.784,-0.14 c -0.97,-0.187 -1.857,-0.439 -2.66,-0.756 -0.802,-0.336 -1.446,-0.793 -1.932,-1.372 -0.485,-0.579 -0.728,-1.325 -0.728,-2.24 0,-1.381 0.504,-2.436 1.512,-3.164 1.008,-0.747 2.334,-1.12 3.976,-1.12 1.55,0 2.838,0.345 3.864,1.036 1.027,0.691 1.699,1.596 2.016,2.716 l -3.276,1.008 c -0.149,-0.709 -0.457,-1.213 -0.924,-1.512 -0.448,-0.299 -1.008,-0.448 -1.68,-0.448 -0.672,0 -1.185,0.121 -1.54,0.364 -0.354,0.224 -0.532,0.541 -0.532,0.952 0,0.448 0.187,0.784 0.56,1.008 0.374,0.205 0.878,0.364 1.512,0.476 l 0.784,0.14 c 1.046,0.187 1.988,0.439 2.828,0.756 0.859,0.299 1.531,0.737 2.016,1.316 0.504,0.56 0.756,1.325 0.756,2.296 0,1.456 -0.532,2.585 -1.596,3.388 -1.045,0.784 -2.454,1.176 -4.228,1.176 z m 15.244,0 c -1.381,0 -2.604,-0.289 -3.668,-0.868 -1.045,-0.597 -1.867,-1.428 -2.464,-2.492 -0.579,-1.083 -0.868,-2.352 -0.868,-3.808 v -0.336 c 0,-1.456 0.289,-2.716 0.868,-3.78 0.579,-1.083 1.391,-1.913 2.436,-2.492 1.045,-0.597 2.259,-0.896 3.64,-0.896 1.363,0 2.548,0.308 3.556,0.924 1.008,0.597 1.792,1.437 2.352,2.52 0.56,1.064 0.84,2.305 0.84,3.724 v 1.204 h -10.108 c 0.037,0.952 0.392,1.727 1.064,2.324 0.672,0.597 1.493,0.896 2.464,0.896 0.989,0 1.717,-0.215 2.184,-0.644 0.467,-0.429 0.821,-0.905 1.064,-1.428 l 2.884,1.512 c -0.261,0.485 -0.644,1.017 -1.148,1.596 -0.485,0.56 -1.139,1.045 -1.96,1.456 -0.821,0.392 -1.867,0.588 -3.136,0.588 z m -3.388,-8.932 h 6.496 c -0.075,-0.803 -0.401,-1.447 -0.98,-1.932 -0.56,-0.485 -1.297,-0.728 -2.212,-0.728 -0.952,0 -1.708,0.243 -2.268,0.728 -0.56,0.485 -0.905,1.129 -1.036,1.932 z"
       fill="#ffffff"
       id="path23" />
    <path
       d="m 1407,245 h 202 c 3.31,0 6,-2.686 6,-6 v -20 c 0,-3.314 -2.69,-6 -6,-6 h -202 z"
       fill="url(#paint4_linear_3731_131)"
       id="path24"
       style="fill:url(#paint4_linear_3731_131)" />
    <path
       d="m 542.639,592.895 v 4.57 h -2.083 v -12.604 h 3.823 c 1.447,0 2.569,0.337 3.366,1.011 0.797,0.674 1.195,1.623 1.195,2.848 0,1.224 -0.416,2.226 -1.248,3.006 -0.832,0.779 -1.957,1.169 -3.375,1.169 z m 0,-6.311 v 4.605 h 1.353 c 0.897,0 1.579,-0.208 2.048,-0.624 0.469,-0.416 0.703,-1.002 0.703,-1.757 0,-1.483 -0.861,-2.224 -2.584,-2.224 z m 14.598,10.881 h -1.977 v -1.406 h -0.035 c -0.621,1.078 -1.533,1.617 -2.734,1.617 -0.885,0 -1.579,-0.24 -2.083,-0.721 -0.498,-0.48 -0.747,-1.116 -0.747,-1.907 0,-1.699 0.979,-2.69 2.936,-2.971 l 2.672,-0.378 c 0,-1.283 -0.61,-1.925 -1.829,-1.925 -1.072,0 -2.039,0.37 -2.9,1.108 v -1.784 c 0.949,-0.563 2.045,-0.844 3.287,-0.844 2.274,0 3.41,1.119 3.41,3.357 z m -1.968,-4.421 -1.89,0.264 c -0.586,0.076 -1.028,0.219 -1.327,0.43 -0.293,0.205 -0.44,0.569 -0.44,1.09 0,0.381 0.135,0.694 0.405,0.941 0.275,0.24 0.641,0.36 1.098,0.36 0.621,0 1.134,-0.217 1.538,-0.65 0.41,-0.44 0.616,-0.991 0.616,-1.653 z m 9.21,4.324 c -0.398,0.199 -0.922,0.299 -1.573,0.299 -1.746,0 -2.619,-0.838 -2.619,-2.514 v -5.089 h -1.503 v -1.599 h 1.503 v -2.083 l 2.039,-0.58 v 2.663 h 2.153 v 1.599 h -2.153 v 4.5 c 0,0.534 0.097,0.915 0.29,1.143 0.194,0.229 0.516,0.343 0.967,0.343 0.346,0 0.645,-0.1 0.896,-0.299 z m 8.042,-0.316 c -0.72,0.416 -1.573,0.624 -2.557,0.624 -1.336,0 -2.414,-0.416 -3.235,-1.248 -0.82,-0.838 -1.23,-1.922 -1.23,-3.252 0,-1.483 0.439,-2.672 1.318,-3.569 0.885,-0.902 2.066,-1.353 3.542,-1.353 0.821,0 1.544,0.143 2.171,0.431 v 1.898 c -0.627,-0.469 -1.295,-0.703 -2.004,-0.703 -0.861,0 -1.567,0.293 -2.118,0.879 -0.551,0.58 -0.826,1.342 -0.826,2.285 0,0.932 0.258,1.667 0.773,2.206 0.522,0.539 1.219,0.809 2.092,0.809 0.733,0 1.424,-0.261 2.074,-0.783 z m 10.029,0.413 h -2.039 v -4.922 c 0,-1.781 -0.595,-2.672 -1.784,-2.672 -0.598,0 -1.102,0.258 -1.512,0.774 -0.41,0.515 -0.615,1.174 -0.615,1.977 v 4.843 h -2.048 v -13.324 h 2.048 v 5.818 h 0.035 c 0.679,-1.137 1.652,-1.705 2.918,-1.705 1.998,0 2.997,1.222 2.997,3.665 z m 10.098,-3.946 h -6.134 c 0.023,0.832 0.278,1.473 0.764,1.924 0.493,0.452 1.166,0.677 2.022,0.677 0.961,0 1.843,-0.287 2.645,-0.861 v 1.643 c -0.82,0.516 -1.904,0.774 -3.252,0.774 -1.324,0 -2.364,-0.407 -3.12,-1.222 -0.75,-0.82 -1.125,-1.972 -1.125,-3.454 0,-1.4 0.413,-2.54 1.24,-3.419 0.832,-0.885 1.863,-1.327 3.093,-1.327 1.231,0 2.183,0.395 2.857,1.186 0.674,0.791 1.01,1.89 1.01,3.296 z m -1.968,-1.442 c -0.006,-0.732 -0.179,-1.301 -0.519,-1.705 -0.34,-0.41 -0.808,-0.615 -1.406,-0.615 -0.586,0 -1.084,0.214 -1.494,0.641 -0.405,0.428 -0.654,0.988 -0.747,1.679 z m 3.348,5.107 v -1.89 c 0.762,0.58 1.603,0.87 2.523,0.87 1.23,0 1.845,-0.363 1.845,-1.09 0,-0.205 -0.052,-0.378 -0.158,-0.518 -0.105,-0.147 -0.249,-0.276 -0.43,-0.387 -0.176,-0.111 -0.387,-0.211 -0.633,-0.299 -0.24,-0.088 -0.51,-0.187 -0.809,-0.299 -0.369,-0.146 -0.703,-0.301 -1.002,-0.466 -0.293,-0.164 -0.539,-0.348 -0.738,-0.553 -0.193,-0.211 -0.34,-0.448 -0.439,-0.712 -0.1,-0.264 -0.15,-0.571 -0.15,-0.923 0,-0.434 0.103,-0.814 0.308,-1.143 0.205,-0.334 0.48,-0.612 0.826,-0.835 0.346,-0.228 0.738,-0.398 1.178,-0.509 0.439,-0.118 0.893,-0.176 1.362,-0.176 0.832,0 1.576,0.126 2.232,0.378 v 1.784 c -0.632,-0.434 -1.359,-0.65 -2.179,-0.65 -0.258,0 -0.493,0.026 -0.703,0.079 -0.206,0.052 -0.381,0.126 -0.528,0.219 -0.146,0.094 -0.261,0.208 -0.343,0.343 -0.082,0.129 -0.123,0.273 -0.123,0.431 0,0.193 0.041,0.357 0.123,0.492 0.082,0.135 0.203,0.255 0.361,0.36 0.164,0.1 0.357,0.194 0.58,0.282 0.228,0.082 0.489,0.173 0.782,0.272 0.387,0.158 0.733,0.319 1.037,0.484 0.311,0.164 0.574,0.351 0.791,0.562 0.217,0.205 0.384,0.445 0.501,0.721 0.117,0.269 0.176,0.592 0.176,0.967 0,0.457 -0.106,0.855 -0.316,1.195 -0.211,0.34 -0.493,0.621 -0.844,0.844 -0.352,0.222 -0.759,0.386 -1.222,0.492 -0.457,0.111 -0.94,0.167 -1.45,0.167 -0.984,0 -1.837,-0.164 -2.558,-0.492 z m 18.378,-11.382 c -0.275,-0.158 -0.589,-0.238 -0.94,-0.238 -0.99,0 -1.486,0.56 -1.486,1.679 v 1.222 h 2.092 v 1.599 h -2.083 v 7.401 h -2.039 v -7.401 h -1.538 v -1.599 h 1.538 v -1.459 c 0,-0.949 0.311,-1.696 0.932,-2.241 0.621,-0.551 1.397,-0.827 2.329,-0.827 0.504,0 0.902,0.056 1.195,0.167 z m 5.107,11.874 c -1.389,0 -2.499,-0.419 -3.331,-1.257 -0.827,-0.844 -1.24,-1.96 -1.24,-3.349 0,-1.511 0.431,-2.692 1.292,-3.542 0.868,-0.849 2.034,-1.274 3.498,-1.274 1.407,0 2.502,0.413 3.288,1.239 0.785,0.826 1.177,1.972 1.177,3.437 0,1.435 -0.425,2.587 -1.274,3.454 -0.844,0.861 -1.981,1.292 -3.41,1.292 z m 0.096,-7.796 c -0.797,0 -1.426,0.278 -1.889,0.835 -0.463,0.556 -0.695,1.324 -0.695,2.303 0,0.943 0.235,1.687 0.704,2.232 0.468,0.539 1.095,0.809 1.88,0.809 0.803,0 1.418,-0.267 1.846,-0.8 0.434,-0.533 0.65,-1.292 0.65,-2.277 0,-0.99 -0.216,-1.754 -0.65,-2.294 -0.428,-0.539 -1.043,-0.808 -1.846,-0.808 z m 11.892,0.527 c -0.246,-0.193 -0.601,-0.29 -1.063,-0.29 -0.604,0 -1.108,0.273 -1.512,0.818 -0.405,0.544 -0.607,1.286 -0.607,2.223 v 4.307 h -2.039 v -9 h 2.039 v 1.854 h 0.035 c 0.2,-0.632 0.504,-1.125 0.915,-1.476 0.416,-0.358 0.878,-0.536 1.388,-0.536 0.369,0 0.651,0.055 0.844,0.167 z m 6.152,6.592 v -1.916 c 0.821,0.65 1.746,0.976 2.778,0.976 0.838,0 1.506,-0.191 2.004,-0.572 0.503,-0.381 0.755,-0.896 0.755,-1.547 0,-1.429 -1.092,-2.144 -3.278,-2.144 h -0.975 v -1.635 h 0.931 c 1.94,0 2.909,-0.674 2.909,-2.021 0,-1.243 -0.756,-1.864 -2.267,-1.864 -0.844,0 -1.638,0.302 -2.382,0.906 v -1.811 c 0.855,-0.48 1.866,-0.721 3.032,-0.721 1.119,0 2.016,0.282 2.69,0.844 0.673,0.563 1.01,1.283 1.01,2.162 0,1.658 -0.843,2.725 -2.531,3.199 v 0.036 c 0.908,0.088 1.626,0.407 2.153,0.958 0.528,0.545 0.791,1.227 0.791,2.047 0,1.131 -0.424,2.045 -1.274,2.743 -0.85,0.691 -1.969,1.037 -3.357,1.037 -1.248,0 -2.245,-0.226 -2.989,-0.677 z m 18.282,-3.586 c 0,0.633 -0.106,1.21 -0.317,1.732 -0.205,0.521 -0.492,0.972 -0.861,1.353 -0.369,0.375 -0.809,0.668 -1.319,0.879 -0.503,0.205 -1.051,0.308 -1.643,0.308 -0.633,0 -1.216,-0.123 -1.749,-0.37 -0.527,-0.246 -0.984,-0.612 -1.371,-1.098 -0.381,-0.487 -0.677,-1.09 -0.888,-1.811 -0.211,-0.726 -0.316,-1.567 -0.316,-2.522 0,-1.166 0.137,-2.2 0.413,-3.103 0.281,-0.902 0.665,-1.658 1.151,-2.267 0.486,-0.61 1.058,-1.073 1.714,-1.389 0.656,-0.316 1.365,-0.475 2.127,-0.475 0.475,0 0.905,0.033 1.292,0.097 0.393,0.065 0.706,0.152 0.94,0.264 v 1.837 c -0.298,-0.153 -0.618,-0.282 -0.958,-0.387 -0.339,-0.106 -0.729,-0.158 -1.169,-0.158 -0.492,0 -0.946,0.099 -1.362,0.299 -0.416,0.199 -0.776,0.492 -1.081,0.878 -0.299,0.381 -0.536,0.856 -0.712,1.424 -0.17,0.563 -0.258,1.213 -0.264,1.951 h 0.053 c 0.27,-0.416 0.633,-0.744 1.09,-0.984 0.463,-0.24 1.005,-0.36 1.626,-0.36 0.551,0 1.046,0.091 1.485,0.272 0.446,0.176 0.824,0.434 1.134,0.774 0.317,0.334 0.56,0.744 0.73,1.23 0.17,0.481 0.255,1.023 0.255,1.626 z m -2.057,0.167 c 0,-0.363 -0.044,-0.694 -0.132,-0.993 -0.082,-0.299 -0.211,-0.554 -0.387,-0.765 -0.17,-0.217 -0.386,-0.384 -0.65,-0.501 -0.258,-0.117 -0.563,-0.175 -0.914,-0.175 -0.352,0 -0.662,0.064 -0.932,0.193 -0.263,0.123 -0.486,0.287 -0.668,0.492 -0.181,0.205 -0.319,0.44 -0.413,0.703 -0.088,0.264 -0.132,0.533 -0.132,0.809 0,0.299 0.041,0.606 0.123,0.923 0.088,0.31 0.22,0.594 0.396,0.852 0.176,0.258 0.398,0.472 0.668,0.642 0.275,0.164 0.601,0.246 0.975,0.246 0.334,0 0.63,-0.062 0.888,-0.185 0.258,-0.123 0.472,-0.293 0.642,-0.509 0.176,-0.217 0.307,-0.472 0.395,-0.765 0.094,-0.299 0.141,-0.621 0.141,-0.967 z m 22.491,3.885 h -2.039 v -4.904 c 0,-0.944 -0.135,-1.626 -0.404,-2.048 -0.264,-0.422 -0.712,-0.633 -1.345,-0.633 -0.533,0 -0.987,0.266 -1.362,0.8 -0.369,0.533 -0.554,1.172 -0.554,1.916 v 4.869 h -2.048 v -5.071 c 0,-1.676 -0.592,-2.514 -1.775,-2.514 -0.551,0 -1.005,0.252 -1.363,0.756 -0.351,0.504 -0.527,1.157 -0.527,1.96 v 4.869 h -2.039 v -9 h 2.039 v 1.424 h 0.035 c 0.651,-1.09 1.597,-1.635 2.839,-1.635 0.621,0 1.163,0.173 1.626,0.518 0.469,0.34 0.788,0.789 0.958,1.345 0.668,-1.242 1.664,-1.863 2.988,-1.863 1.981,0 2.971,1.222 2.971,3.665 z m 6.478,0.211 c -1.389,0 -2.499,-0.419 -3.331,-1.257 -0.827,-0.844 -1.24,-1.96 -1.24,-3.349 0,-1.511 0.431,-2.692 1.292,-3.542 0.868,-0.849 2.034,-1.274 3.498,-1.274 1.407,0 2.502,0.413 3.288,1.239 0.785,0.826 1.177,1.972 1.177,3.437 0,1.435 -0.425,2.587 -1.274,3.454 -0.844,0.861 -1.981,1.292 -3.41,1.292 z m 0.096,-7.796 c -0.797,0 -1.426,0.278 -1.889,0.835 -0.463,0.556 -0.695,1.324 -0.695,2.303 0,0.943 0.235,1.687 0.703,2.232 0.469,0.539 1.096,0.809 1.881,0.809 0.803,0 1.418,-0.267 1.846,-0.8 0.434,-0.533 0.65,-1.292 0.65,-2.277 0,-0.99 -0.216,-1.754 -0.65,-2.294 -0.428,-0.539 -1.043,-0.808 -1.846,-0.808 z m 14.687,7.585 h -2.039 v -5.071 c 0,-1.682 -0.595,-2.523 -1.784,-2.523 -0.621,0 -1.134,0.234 -1.538,0.703 -0.405,0.463 -0.607,1.049 -0.607,1.758 v 5.133 h -2.048 v -9 h 2.048 v 1.494 h 0.035 c 0.674,-1.137 1.647,-1.705 2.918,-1.705 0.979,0 1.726,0.319 2.241,0.958 0.516,0.633 0.774,1.55 0.774,2.751 z m 7.242,-0.097 c -0.398,0.199 -0.923,0.299 -1.573,0.299 -1.746,0 -2.619,-0.838 -2.619,-2.514 v -5.089 h -1.503 v -1.599 h 1.503 v -2.083 l 2.039,-0.58 v 2.663 h 2.153 v 1.599 h -2.153 v 4.5 c 0,0.534 0.096,0.915 0.29,1.143 0.193,0.229 0.515,0.343 0.967,0.343 0.345,0 0.644,-0.1 0.896,-0.299 z m 9.756,0.097 h -2.039 v -4.922 c 0,-1.781 -0.595,-2.672 -1.784,-2.672 -0.598,0 -1.102,0.258 -1.512,0.774 -0.41,0.515 -0.615,1.174 -0.615,1.977 v 4.843 h -2.048 v -13.324 h 2.048 v 5.818 h 0.035 c 0.68,-1.137 1.652,-1.705 2.918,-1.705 1.998,0 2.997,1.222 2.997,3.665 z m 1.916,-0.281 v -1.89 c 0.762,0.58 1.602,0.87 2.522,0.87 1.231,0 1.846,-0.363 1.846,-1.09 0,-0.205 -0.053,-0.378 -0.158,-0.518 -0.106,-0.147 -0.249,-0.276 -0.431,-0.387 -0.176,-0.111 -0.386,-0.211 -0.633,-0.299 -0.24,-0.088 -0.509,-0.187 -0.808,-0.299 -0.369,-0.146 -0.703,-0.301 -1.002,-0.466 -0.293,-0.164 -0.539,-0.348 -0.738,-0.553 -0.194,-0.211 -0.34,-0.448 -0.44,-0.712 -0.099,-0.264 -0.149,-0.571 -0.149,-0.923 0,-0.434 0.102,-0.814 0.307,-1.143 0.205,-0.334 0.481,-0.612 0.827,-0.835 0.345,-0.228 0.738,-0.398 1.177,-0.509 0.44,-0.118 0.894,-0.176 1.363,-0.176 0.832,0 1.576,0.126 2.232,0.378 v 1.784 c -0.633,-0.434 -1.359,-0.65 -2.18,-0.65 -0.258,0 -0.492,0.026 -0.703,0.079 -0.205,0.052 -0.381,0.126 -0.527,0.219 -0.147,0.094 -0.261,0.208 -0.343,0.343 -0.082,0.129 -0.123,0.273 -0.123,0.431 0,0.193 0.041,0.357 0.123,0.492 0.082,0.135 0.202,0.255 0.36,0.36 0.164,0.1 0.358,0.194 0.58,0.282 0.229,0.082 0.49,0.173 0.783,0.272 0.386,0.158 0.732,0.319 1.037,0.484 0.31,0.164 0.574,0.351 0.791,0.562 0.217,0.205 0.384,0.445 0.501,0.721 0.117,0.269 0.176,0.592 0.176,0.967 0,0.457 -0.106,0.855 -0.317,1.195 -0.211,0.34 -0.492,0.621 -0.844,0.844 -0.351,0.222 -0.758,0.386 -1.221,0.492 -0.457,0.111 -0.941,0.167 -1.45,0.167 -0.985,0 -1.837,-0.164 -2.558,-0.492 z"
       fill="#33312d"
       id="path25" />
    <path
       d="m 540.452,575.465 v -15.4 h 2.904 v 12.76 h 7.04 v 2.64 z m 17.392,0.308 c -1.936,0 -3.476,-0.528 -4.62,-1.584 -1.144,-1.071 -1.716,-2.596 -1.716,-4.576 v -3.696 c 0,-1.98 0.572,-3.498 1.716,-4.554 1.144,-1.071 2.684,-1.606 4.62,-1.606 1.936,0 3.476,0.535 4.62,1.606 1.144,1.056 1.716,2.574 1.716,4.554 v 3.696 c 0,1.98 -0.572,3.505 -1.716,4.576 -1.144,1.056 -2.684,1.584 -4.62,1.584 z m 0,-2.596 c 1.086,0 1.929,-0.315 2.53,-0.946 0.602,-0.631 0.902,-1.474 0.902,-2.53 v -3.872 c 0,-1.056 -0.3,-1.899 -0.902,-2.53 -0.601,-0.631 -1.444,-0.946 -2.53,-0.946 -1.07,0 -1.914,0.315 -2.53,0.946 -0.601,0.631 -0.902,1.474 -0.902,2.53 v 3.872 c 0,1.056 0.301,1.899 0.902,2.53 0.616,0.631 1.46,0.946 2.53,0.946 z m 8.883,2.288 v -15.4 h 5.522 l 3.058,13.42 h 0.396 v -13.42 h 2.86 v 15.4 h -5.522 l -3.058,-13.42 h -0.396 v 13.42 z m 20.063,0.308 c -1.056,0 -2.017,-0.235 -2.882,-0.704 -0.851,-0.484 -1.533,-1.181 -2.046,-2.09 -0.499,-0.924 -0.748,-2.046 -0.748,-3.366 v -3.696 c 0,-1.98 0.557,-3.498 1.672,-4.554 1.114,-1.071 2.625,-1.606 4.532,-1.606 1.892,0 3.351,0.506 4.378,1.518 1.041,0.997 1.562,2.354 1.562,4.07 v 0.088 h -2.86 v -0.176 c 0,-0.543 -0.118,-1.034 -0.352,-1.474 -0.22,-0.44 -0.558,-0.785 -1.012,-1.034 -0.455,-0.264 -1.027,-0.396 -1.716,-0.396 -1.027,0 -1.834,0.315 -2.42,0.946 -0.587,0.631 -0.88,1.489 -0.88,2.574 v 3.784 c 0,1.071 0.293,1.936 0.88,2.596 0.586,0.645 1.408,0.968 2.464,0.968 1.056,0 1.826,-0.279 2.31,-0.836 0.484,-0.557 0.726,-1.261 0.726,-2.112 v -0.22 h -3.652 v -2.464 h 6.512 v 7.876 h -2.684 v -1.474 h -0.396 c -0.103,0.249 -0.272,0.513 -0.506,0.792 -0.22,0.279 -0.558,0.513 -1.012,0.704 -0.455,0.191 -1.078,0.286 -1.87,0.286 z m 17.726,-0.308 v -12.76 h -4.488 v -2.64 h 11.88 v 2.64 h -4.488 v 12.76 z m 9.37,0 v -15.4 h 9.9 v 2.64 h -6.996 v 3.674 h 6.38 v 2.64 h -6.38 v 3.806 h 7.128 v 2.64 z m 12.181,0 v -15.4 h 6.688 c 0.968,0 1.812,0.169 2.53,0.506 0.719,0.337 1.276,0.814 1.672,1.43 0.396,0.616 0.594,1.342 0.594,2.178 v 0.264 c 0,0.924 -0.22,1.672 -0.66,2.244 -0.44,0.572 -0.982,0.99 -1.628,1.254 v 0.396 c 0.587,0.029 1.042,0.235 1.364,0.616 0.323,0.367 0.484,0.858 0.484,1.474 v 5.038 h -2.904 v -4.62 c 0,-0.352 -0.095,-0.638 -0.286,-0.858 -0.176,-0.22 -0.476,-0.33 -0.902,-0.33 h -4.048 v 5.808 z m 2.904,-8.448 h 3.476 c 0.69,0 1.225,-0.183 1.606,-0.55 0.396,-0.381 0.594,-0.88 0.594,-1.496 v -0.22 c 0,-0.616 -0.19,-1.107 -0.572,-1.474 -0.381,-0.381 -0.924,-0.572 -1.628,-0.572 h -3.476 z m 10.997,8.448 v -15.4 h 5.39 l 2.662,13.42 h 0.396 l 2.662,-13.42 h 5.39 v 15.4 h -2.816 v -13.266 h -0.396 l -2.64,13.266 h -4.796 l -2.64,-13.266 h -0.396 v 13.266 z m 30.332,0.308 c -1.188,0 -2.237,-0.213 -3.146,-0.638 -0.909,-0.425 -1.621,-1.034 -2.134,-1.826 -0.513,-0.792 -0.77,-1.745 -0.77,-2.86 v -0.616 h 2.86 v 0.616 c 0,0.924 0.286,1.621 0.858,2.09 0.572,0.455 1.349,0.682 2.332,0.682 0.997,0 1.738,-0.198 2.222,-0.594 0.499,-0.396 0.748,-0.902 0.748,-1.518 0,-0.425 -0.125,-0.77 -0.374,-1.034 -0.235,-0.264 -0.587,-0.477 -1.056,-0.638 -0.455,-0.176 -1.012,-0.337 -1.672,-0.484 l -0.506,-0.11 c -1.056,-0.235 -1.965,-0.528 -2.728,-0.88 -0.748,-0.367 -1.327,-0.843 -1.738,-1.43 -0.396,-0.587 -0.594,-1.349 -0.594,-2.288 0,-0.939 0.22,-1.738 0.66,-2.398 0.455,-0.675 1.085,-1.188 1.892,-1.54 0.821,-0.367 1.782,-0.55 2.882,-0.55 1.1,0 2.075,0.191 2.926,0.572 0.865,0.367 1.54,0.924 2.024,1.672 0.499,0.733 0.748,1.657 0.748,2.772 v 0.66 h -2.86 v -0.66 c 0,-0.587 -0.117,-1.056 -0.352,-1.408 -0.22,-0.367 -0.543,-0.631 -0.968,-0.792 -0.425,-0.176 -0.931,-0.264 -1.518,-0.264 -0.88,0 -1.533,0.169 -1.958,0.506 -0.411,0.323 -0.616,0.77 -0.616,1.342 0,0.381 0.095,0.704 0.286,0.968 0.205,0.264 0.506,0.484 0.902,0.66 0.396,0.176 0.902,0.33 1.518,0.462 l 0.506,0.11 c 1.1,0.235 2.053,0.535 2.86,0.902 0.821,0.367 1.459,0.851 1.914,1.452 0.455,0.601 0.682,1.371 0.682,2.31 0,0.939 -0.242,1.767 -0.726,2.486 -0.469,0.704 -1.144,1.261 -2.024,1.672 -0.865,0.396 -1.892,0.594 -3.08,0.594 z m 13.936,0 c -1.262,0 -2.347,-0.227 -3.256,-0.682 -0.895,-0.469 -1.584,-1.129 -2.068,-1.98 -0.47,-0.865 -0.704,-1.885 -0.704,-3.058 v -9.988 h 2.904 v 10.076 c 0,0.939 0.264,1.679 0.792,2.222 0.542,0.543 1.32,0.814 2.332,0.814 1.012,0 1.782,-0.271 2.31,-0.814 0.542,-0.543 0.814,-1.283 0.814,-2.222 v -10.076 h 2.904 v 9.988 c 0,1.173 -0.242,2.193 -0.726,3.058 -0.47,0.851 -1.159,1.511 -2.068,1.98 -0.895,0.455 -1.973,0.682 -3.234,0.682 z m 8.841,-0.308 v -15.4 h 6.336 c 0.968,0 1.819,0.198 2.552,0.594 0.748,0.381 1.327,0.924 1.738,1.628 0.425,0.704 0.638,1.54 0.638,2.508 v 0.308 c 0,0.953 -0.22,1.789 -0.66,2.508 -0.425,0.704 -1.012,1.254 -1.76,1.65 -0.733,0.381 -1.569,0.572 -2.508,0.572 h -3.432 v 5.632 z m 2.904,-8.272 h 3.146 c 0.689,0 1.247,-0.191 1.672,-0.572 0.425,-0.381 0.638,-0.902 0.638,-1.562 v -0.22 c 0,-0.66 -0.213,-1.181 -0.638,-1.562 -0.425,-0.381 -0.983,-0.572 -1.672,-0.572 h -3.146 z m 10.373,8.272 v -15.4 h 6.336 c 0.968,0 1.819,0.198 2.552,0.594 0.748,0.381 1.328,0.924 1.738,1.628 0.426,0.704 0.638,1.54 0.638,2.508 v 0.308 c 0,0.953 -0.22,1.789 -0.66,2.508 -0.425,0.704 -1.012,1.254 -1.76,1.65 -0.733,0.381 -1.569,0.572 -2.508,0.572 h -3.432 v 5.632 z m 2.904,-8.272 h 3.146 c 0.69,0 1.247,-0.191 1.672,-0.572 0.426,-0.381 0.638,-0.902 0.638,-1.562 v -0.22 c 0,-0.66 -0.212,-1.181 -0.638,-1.562 -0.425,-0.381 -0.982,-0.572 -1.672,-0.572 h -3.146 z m 16.358,8.58 c -1.936,0 -3.476,-0.528 -4.62,-1.584 -1.144,-1.071 -1.716,-2.596 -1.716,-4.576 v -3.696 c 0,-1.98 0.572,-3.498 1.716,-4.554 1.144,-1.071 2.684,-1.606 4.62,-1.606 1.936,0 3.476,0.535 4.62,1.606 1.144,1.056 1.716,2.574 1.716,4.554 v 3.696 c 0,1.98 -0.572,3.505 -1.716,4.576 -1.144,1.056 -2.684,1.584 -4.62,1.584 z m 0,-2.596 c 1.085,0 1.928,-0.315 2.53,-0.946 0.601,-0.631 0.902,-1.474 0.902,-2.53 v -3.872 c 0,-1.056 -0.301,-1.899 -0.902,-2.53 -0.602,-0.631 -1.445,-0.946 -2.53,-0.946 -1.071,0 -1.914,0.315 -2.53,0.946 -0.602,0.631 -0.902,1.474 -0.902,2.53 v 3.872 c 0,1.056 0.3,1.899 0.902,2.53 0.616,0.631 1.459,0.946 2.53,0.946 z m 8.883,2.288 v -15.4 h 6.688 c 0.968,0 1.811,0.169 2.53,0.506 0.719,0.337 1.276,0.814 1.672,1.43 0.396,0.616 0.594,1.342 0.594,2.178 v 0.264 c 0,0.924 -0.22,1.672 -0.66,2.244 -0.44,0.572 -0.983,0.99 -1.628,1.254 v 0.396 c 0.587,0.029 1.041,0.235 1.364,0.616 0.323,0.367 0.484,0.858 0.484,1.474 v 5.038 h -2.904 v -4.62 c 0,-0.352 -0.095,-0.638 -0.286,-0.858 -0.176,-0.22 -0.477,-0.33 -0.902,-0.33 h -4.048 v 5.808 z m 2.904,-8.448 h 3.476 c 0.689,0 1.225,-0.183 1.606,-0.55 0.396,-0.381 0.594,-0.88 0.594,-1.496 v -0.22 c 0,-0.616 -0.191,-1.107 -0.572,-1.474 -0.381,-0.381 -0.924,-0.572 -1.628,-0.572 h -3.476 z m 14.302,8.448 v -12.76 h -4.488 v -2.64 h 11.88 v 2.64 h -4.488 v 12.76 z"
       fill="#33312d"
       id="path26" />
    <rect
       x="488"
       y="559.46503"
       width="39"
       height="39"
       rx="6"
       fill="url(#paint5_linear_3731_131)"
       id="rect26"
       style="fill:url(#paint5_linear_3731_131)" />
    <path
       d="m 938.639,592.895 v 4.57 h -2.083 v -12.604 h 3.823 c 1.447,0 2.569,0.337 3.366,1.011 0.797,0.674 1.195,1.623 1.195,2.848 0,1.224 -0.416,2.226 -1.248,3.006 -0.832,0.779 -1.957,1.169 -3.375,1.169 z m 0,-6.311 v 4.605 h 1.353 c 0.897,0 1.579,-0.208 2.048,-0.624 0.469,-0.416 0.703,-1.002 0.703,-1.757 0,-1.483 -0.861,-2.224 -2.584,-2.224 z m 14.598,10.881 h -1.977 v -1.406 h -0.035 c -0.621,1.078 -1.533,1.617 -2.734,1.617 -0.885,0 -1.579,-0.24 -2.083,-0.721 -0.498,-0.48 -0.747,-1.116 -0.747,-1.907 0,-1.699 0.979,-2.69 2.936,-2.971 l 2.672,-0.378 c 0,-1.283 -0.61,-1.925 -1.829,-1.925 -1.072,0 -2.039,0.37 -2.9,1.108 v -1.784 c 0.949,-0.563 2.045,-0.844 3.287,-0.844 2.274,0 3.41,1.119 3.41,3.357 z m -1.968,-4.421 -1.89,0.264 c -0.586,0.076 -1.028,0.219 -1.327,0.43 -0.293,0.205 -0.44,0.569 -0.44,1.09 0,0.381 0.135,0.694 0.405,0.941 0.275,0.24 0.641,0.36 1.098,0.36 0.621,0 1.134,-0.217 1.538,-0.65 0.41,-0.44 0.616,-0.991 0.616,-1.653 z m 9.21,4.324 c -0.398,0.199 -0.922,0.299 -1.573,0.299 -1.746,0 -2.619,-0.838 -2.619,-2.514 v -5.089 h -1.503 v -1.599 h 1.503 v -2.083 l 2.039,-0.58 v 2.663 h 2.153 v 1.599 h -2.153 v 4.5 c 0,0.534 0.097,0.915 0.29,1.143 0.194,0.229 0.516,0.343 0.967,0.343 0.346,0 0.645,-0.1 0.896,-0.299 z m 8.042,-0.316 c -0.72,0.416 -1.573,0.624 -2.557,0.624 -1.336,0 -2.414,-0.416 -3.235,-1.248 -0.82,-0.838 -1.23,-1.922 -1.23,-3.252 0,-1.483 0.439,-2.672 1.318,-3.569 0.885,-0.902 2.066,-1.353 3.542,-1.353 0.821,0 1.544,0.143 2.171,0.431 v 1.898 c -0.627,-0.469 -1.295,-0.703 -2.004,-0.703 -0.861,0 -1.567,0.293 -2.118,0.879 -0.551,0.58 -0.826,1.342 -0.826,2.285 0,0.932 0.258,1.667 0.773,2.206 0.522,0.539 1.219,0.809 2.092,0.809 0.733,0 1.424,-0.261 2.074,-0.783 z m 10.029,0.413 h -2.039 v -4.922 c 0,-1.781 -0.595,-2.672 -1.784,-2.672 -0.598,0 -1.102,0.258 -1.512,0.774 -0.41,0.515 -0.615,1.174 -0.615,1.977 v 4.843 h -2.048 v -13.324 h 2.048 v 5.818 h 0.035 c 0.679,-1.137 1.652,-1.705 2.918,-1.705 1.998,0 2.997,1.222 2.997,3.665 z m 10.098,-3.946 h -6.134 c 0.023,0.832 0.278,1.473 0.764,1.924 0.493,0.452 1.166,0.677 2.022,0.677 0.961,0 1.843,-0.287 2.645,-0.861 v 1.643 c -0.82,0.516 -1.904,0.774 -3.252,0.774 -1.324,0 -2.364,-0.407 -3.12,-1.222 -0.75,-0.82 -1.125,-1.972 -1.125,-3.454 0,-1.4 0.413,-2.54 1.24,-3.419 0.832,-0.885 1.863,-1.327 3.093,-1.327 1.231,0 2.183,0.395 2.857,1.186 0.674,0.791 1.01,1.89 1.01,3.296 z m -1.968,-1.442 c -0.006,-0.732 -0.179,-1.301 -0.519,-1.705 -0.34,-0.41 -0.808,-0.615 -1.406,-0.615 -0.586,0 -1.084,0.214 -1.494,0.641 -0.405,0.428 -0.654,0.988 -0.747,1.679 z m 3.348,5.107 v -1.89 c 0.762,0.58 1.603,0.87 2.523,0.87 1.23,0 1.845,-0.363 1.845,-1.09 0,-0.205 -0.052,-0.378 -0.158,-0.518 -0.105,-0.147 -0.249,-0.276 -0.43,-0.387 -0.176,-0.111 -0.387,-0.211 -0.633,-0.299 -0.24,-0.088 -0.51,-0.187 -0.809,-0.299 -0.369,-0.146 -0.703,-0.301 -1.002,-0.466 -0.293,-0.164 -0.539,-0.348 -0.738,-0.553 -0.193,-0.211 -0.34,-0.448 -0.439,-0.712 -0.1,-0.264 -0.15,-0.571 -0.15,-0.923 0,-0.434 0.103,-0.814 0.308,-1.143 0.205,-0.334 0.48,-0.612 0.826,-0.835 0.346,-0.228 0.738,-0.398 1.178,-0.509 0.439,-0.118 0.893,-0.176 1.362,-0.176 0.832,0 1.576,0.126 2.232,0.378 v 1.784 c -0.632,-0.434 -1.359,-0.65 -2.179,-0.65 -0.258,0 -0.493,0.026 -0.703,0.079 -0.206,0.052 -0.381,0.126 -0.528,0.219 -0.146,0.094 -0.261,0.208 -0.343,0.343 -0.082,0.129 -0.123,0.273 -0.123,0.431 0,0.193 0.041,0.357 0.123,0.492 0.082,0.135 0.203,0.255 0.361,0.36 0.164,0.1 0.357,0.194 0.58,0.282 0.228,0.082 0.489,0.173 0.782,0.272 0.387,0.158 0.733,0.319 1.037,0.484 0.311,0.164 0.574,0.351 0.791,0.562 0.217,0.205 0.384,0.445 0.501,0.721 0.117,0.269 0.176,0.592 0.176,0.967 0,0.457 -0.106,0.855 -0.316,1.195 -0.211,0.34 -0.493,0.621 -0.844,0.844 -0.352,0.222 -0.759,0.386 -1.222,0.492 -0.457,0.111 -0.94,0.167 -1.45,0.167 -0.984,0 -1.837,-0.164 -2.558,-0.492 z m 18.382,-11.382 c -0.28,-0.158 -0.59,-0.238 -0.94,-0.238 -0.99,0 -1.49,0.56 -1.49,1.679 v 1.222 h 2.09 v 1.599 h -2.08 v 7.401 h -2.04 v -7.401 h -1.54 v -1.599 h 1.54 v -1.459 c 0,-0.949 0.31,-1.696 0.93,-2.241 0.62,-0.551 1.4,-0.827 2.33,-0.827 0.5,0 0.9,0.056 1.2,0.167 z m 5.1,11.874 c -1.39,0 -2.5,-0.419 -3.33,-1.257 -0.82,-0.844 -1.24,-1.96 -1.24,-3.349 0,-1.511 0.43,-2.692 1.29,-3.542 0.87,-0.849 2.04,-1.274 3.5,-1.274 1.41,0 2.5,0.413 3.29,1.239 0.78,0.826 1.18,1.972 1.18,3.437 0,1.435 -0.43,2.587 -1.28,3.454 -0.84,0.861 -1.98,1.292 -3.41,1.292 z m 0.1,-7.796 c -0.8,0 -1.43,0.278 -1.89,0.835 -0.46,0.556 -0.69,1.324 -0.69,2.303 0,0.943 0.23,1.687 0.7,2.232 0.47,0.539 1.09,0.809 1.88,0.809 0.8,0 1.42,-0.267 1.85,-0.8 0.43,-0.533 0.65,-1.292 0.65,-2.277 0,-0.99 -0.22,-1.754 -0.65,-2.294 -0.43,-0.539 -1.05,-0.808 -1.85,-0.808 z m 11.89,0.527 c -0.25,-0.193 -0.6,-0.29 -1.06,-0.29 -0.61,0 -1.11,0.273 -1.51,0.818 -0.41,0.544 -0.61,1.286 -0.61,2.223 v 4.307 h -2.04 v -9 h 2.04 v 1.854 h 0.03 c 0.2,-0.632 0.51,-1.125 0.92,-1.476 0.41,-0.358 0.88,-0.536 1.39,-0.536 0.37,0 0.65,0.055 0.84,0.167 z m 10.48,-5.827 v 12.885 h -2.04 v -10.389 c -0.37,0.264 -0.77,0.489 -1.2,0.677 -0.42,0.182 -0.9,0.343 -1.45,0.483 v -1.74 c 0.34,-0.111 0.67,-0.228 0.99,-0.351 0.31,-0.124 0.62,-0.261 0.93,-0.414 0.31,-0.152 0.62,-0.322 0.93,-0.509 0.32,-0.188 0.64,-0.402 0.98,-0.642 z m 2.63,9.369 c 0,-0.363 0.05,-0.715 0.14,-1.054 0.09,-0.34 0.23,-0.654 0.41,-0.941 0.18,-0.287 0.41,-0.545 0.68,-0.773 0.28,-0.229 0.6,-0.413 0.97,-0.554 -0.54,-0.305 -0.98,-0.694 -1.3,-1.169 -0.32,-0.48 -0.48,-1.011 -0.48,-1.591 0,-0.463 0.09,-0.89 0.28,-1.283 0.19,-0.393 0.46,-0.732 0.79,-1.02 0.34,-0.287 0.74,-0.509 1.19,-0.668 0.46,-0.164 0.96,-0.246 1.5,-0.246 0.54,0 1.04,0.082 1.5,0.246 0.46,0.165 0.86,0.39 1.2,0.677 0.34,0.287 0.6,0.627 0.79,1.02 0.19,0.392 0.28,0.817 0.28,1.274 0,0.58 -0.16,1.111 -0.48,1.591 -0.33,0.475 -0.75,0.864 -1.29,1.169 0.37,0.141 0.69,0.325 0.96,0.554 0.28,0.222 0.52,0.477 0.7,0.764 0.19,0.287 0.33,0.601 0.43,0.941 0.09,0.34 0.14,0.694 0.14,1.063 0,0.551 -0.11,1.055 -0.31,1.512 -0.21,0.457 -0.49,0.85 -0.86,1.178 -0.37,0.322 -0.81,0.574 -1.33,0.756 -0.52,0.181 -1.08,0.272 -1.7,0.272 -0.62,0 -1.19,-0.091 -1.7,-0.272 -0.51,-0.182 -0.95,-0.434 -1.33,-0.756 -0.37,-0.328 -0.66,-0.721 -0.87,-1.178 -0.2,-0.457 -0.31,-0.961 -0.31,-1.512 z m 1.99,-0.176 c 0,0.358 0.05,0.68 0.16,0.967 0.1,0.287 0.25,0.531 0.45,0.73 0.19,0.199 0.42,0.351 0.69,0.457 0.28,0.105 0.58,0.158 0.92,0.158 0.32,0 0.61,-0.053 0.88,-0.158 0.27,-0.112 0.5,-0.267 0.7,-0.466 0.2,-0.205 0.35,-0.448 0.46,-0.73 0.11,-0.287 0.17,-0.606 0.17,-0.958 0,-0.322 -0.05,-0.624 -0.16,-0.905 -0.1,-0.287 -0.25,-0.536 -0.45,-0.747 -0.19,-0.211 -0.42,-0.378 -0.7,-0.501 -0.27,-0.123 -0.57,-0.184 -0.9,-0.184 -0.32,0 -0.62,0.058 -0.89,0.175 -0.27,0.112 -0.51,0.273 -0.71,0.484 -0.19,0.205 -0.34,0.451 -0.45,0.738 -0.11,0.287 -0.17,0.601 -0.17,0.94 z m 0.43,-5.695 c 0,0.264 0.05,0.51 0.14,0.738 0.1,0.223 0.22,0.419 0.38,0.589 0.16,0.164 0.34,0.293 0.55,0.387 0.22,0.094 0.45,0.141 0.7,0.141 0.24,0 0.47,-0.047 0.68,-0.141 0.22,-0.1 0.41,-0.231 0.57,-0.396 0.16,-0.169 0.29,-0.366 0.38,-0.588 0.1,-0.229 0.14,-0.472 0.14,-0.73 0,-0.264 -0.04,-0.51 -0.14,-0.738 -0.09,-0.229 -0.21,-0.425 -0.37,-0.589 -0.15,-0.164 -0.34,-0.293 -0.56,-0.387 -0.22,-0.093 -0.45,-0.14 -0.7,-0.14 -0.27,0 -0.51,0.049 -0.72,0.149 -0.22,0.094 -0.41,0.226 -0.57,0.396 -0.15,0.169 -0.27,0.369 -0.36,0.597 -0.08,0.223 -0.12,0.46 -0.12,0.712 z m 26.53,9.387 h -2.04 v -4.904 c 0,-0.944 -0.14,-1.626 -0.41,-2.048 -0.26,-0.422 -0.71,-0.633 -1.34,-0.633 -0.53,0 -0.99,0.266 -1.36,0.8 -0.37,0.533 -0.56,1.172 -0.56,1.916 v 4.869 h -2.05 v -5.071 c 0,-1.676 -0.59,-2.514 -1.77,-2.514 -0.55,0 -1.01,0.252 -1.36,0.756 -0.35,0.504 -0.53,1.157 -0.53,1.96 v 4.869 h -2.04 v -9 h 2.04 v 1.424 h 0.03 c 0.66,-1.09 1.6,-1.635 2.84,-1.635 0.62,0 1.17,0.173 1.63,0.518 0.47,0.34 0.79,0.789 0.96,1.345 0.67,-1.242 1.66,-1.863 2.99,-1.863 1.98,0 2.97,1.222 2.97,3.665 z m 6.47,0.211 c -1.38,0 -2.49,-0.419 -3.33,-1.257 -0.82,-0.844 -1.24,-1.96 -1.24,-3.349 0,-1.511 0.43,-2.692 1.3,-3.542 0.86,-0.849 2.03,-1.274 3.49,-1.274 1.41,0 2.51,0.413 3.29,1.239 0.79,0.826 1.18,1.972 1.18,3.437 0,1.435 -0.43,2.587 -1.28,3.454 -0.84,0.861 -1.98,1.292 -3.41,1.292 z m 0.1,-7.796 c -0.8,0 -1.43,0.278 -1.89,0.835 -0.46,0.556 -0.69,1.324 -0.69,2.303 0,0.943 0.23,1.687 0.7,2.232 0.47,0.539 1.1,0.809 1.88,0.809 0.8,0 1.42,-0.267 1.85,-0.8 0.43,-0.533 0.65,-1.292 0.65,-2.277 0,-0.99 -0.22,-1.754 -0.65,-2.294 -0.43,-0.539 -1.05,-0.808 -1.85,-0.808 z m 14.69,7.585 h -2.04 v -5.071 c 0,-1.682 -0.6,-2.523 -1.79,-2.523 -0.62,0 -1.13,0.234 -1.53,0.703 -0.41,0.463 -0.61,1.049 -0.61,1.758 v 5.133 h -2.05 v -9 h 2.05 v 1.494 h 0.03 c 0.68,-1.137 1.65,-1.705 2.92,-1.705 0.98,0 1.73,0.319 2.24,0.958 0.52,0.633 0.78,1.55 0.78,2.751 z m 7.24,-0.097 c -0.4,0.199 -0.92,0.299 -1.57,0.299 -1.75,0 -2.62,-0.838 -2.62,-2.514 v -5.089 h -1.51 v -1.599 h 1.51 v -2.083 l 2.04,-0.58 v 2.663 h 2.15 v 1.599 h -2.15 v 4.5 c 0,0.534 0.09,0.915 0.29,1.143 0.19,0.229 0.51,0.343 0.96,0.343 0.35,0 0.65,-0.1 0.9,-0.299 z m 9.76,0.097 h -2.04 v -4.922 c 0,-1.781 -0.6,-2.672 -1.79,-2.672 -0.6,0 -1.1,0.258 -1.51,0.774 -0.41,0.515 -0.61,1.174 -0.61,1.977 v 4.843 h -2.05 v -13.324 h 2.05 v 5.818 h 0.03 c 0.68,-1.137 1.65,-1.705 2.92,-1.705 2,0 3,1.222 3,3.665 z m 1.91,-0.281 v -1.89 c 0.76,0.58 1.6,0.87 2.52,0.87 1.23,0 1.85,-0.363 1.85,-1.09 0,-0.205 -0.05,-0.378 -0.16,-0.518 -0.1,-0.147 -0.25,-0.276 -0.43,-0.387 -0.18,-0.111 -0.39,-0.211 -0.63,-0.299 -0.24,-0.088 -0.51,-0.187 -0.81,-0.299 -0.37,-0.146 -0.7,-0.301 -1,-0.466 -0.3,-0.164 -0.54,-0.348 -0.74,-0.553 -0.19,-0.211 -0.34,-0.448 -0.44,-0.712 -0.1,-0.264 -0.15,-0.571 -0.15,-0.923 0,-0.434 0.1,-0.814 0.31,-1.143 0.2,-0.334 0.48,-0.612 0.82,-0.835 0.35,-0.228 0.74,-0.398 1.18,-0.509 0.44,-0.118 0.9,-0.176 1.36,-0.176 0.84,0 1.58,0.126 2.24,0.378 v 1.784 c -0.64,-0.434 -1.36,-0.65 -2.18,-0.65 -0.26,0 -0.5,0.026 -0.71,0.079 -0.2,0.052 -0.38,0.126 -0.52,0.219 -0.15,0.094 -0.26,0.208 -0.35,0.343 -0.08,0.129 -0.12,0.273 -0.12,0.431 0,0.193 0.04,0.357 0.12,0.492 0.09,0.135 0.21,0.255 0.36,0.36 0.17,0.1 0.36,0.194 0.58,0.282 0.23,0.082 0.49,0.173 0.79,0.272 0.38,0.158 0.73,0.319 1.03,0.484 0.31,0.164 0.58,0.351 0.79,0.562 0.22,0.205 0.39,0.445 0.51,0.721 0.11,0.269 0.17,0.592 0.17,0.967 0,0.457 -0.1,0.855 -0.32,1.195 -0.21,0.34 -0.49,0.621 -0.84,0.844 -0.35,0.222 -0.76,0.386 -1.22,0.492 -0.46,0.111 -0.94,0.167 -1.45,0.167 -0.99,0 -1.84,-0.164 -2.56,-0.492 z"
       fill="#33312d"
       id="path27" />
    <path
       d="m 941.798,575.773 c -1.188,0 -2.237,-0.213 -3.146,-0.638 -0.909,-0.425 -1.621,-1.034 -2.134,-1.826 -0.513,-0.792 -0.77,-1.745 -0.77,-2.86 v -0.616 h 2.86 v 0.616 c 0,0.924 0.286,1.621 0.858,2.09 0.572,0.455 1.349,0.682 2.332,0.682 0.997,0 1.738,-0.198 2.222,-0.594 0.499,-0.396 0.748,-0.902 0.748,-1.518 0,-0.425 -0.125,-0.77 -0.374,-1.034 -0.235,-0.264 -0.587,-0.477 -1.056,-0.638 -0.455,-0.176 -1.012,-0.337 -1.672,-0.484 l -0.506,-0.11 c -1.056,-0.235 -1.965,-0.528 -2.728,-0.88 -0.748,-0.367 -1.327,-0.843 -1.738,-1.43 -0.396,-0.587 -0.594,-1.349 -0.594,-2.288 0,-0.939 0.22,-1.738 0.66,-2.398 0.455,-0.675 1.085,-1.188 1.892,-1.54 0.821,-0.367 1.782,-0.55 2.882,-0.55 1.1,0 2.075,0.191 2.926,0.572 0.865,0.367 1.54,0.924 2.024,1.672 0.499,0.733 0.748,1.657 0.748,2.772 v 0.66 h -2.86 v -0.66 c 0,-0.587 -0.117,-1.056 -0.352,-1.408 -0.22,-0.367 -0.543,-0.631 -0.968,-0.792 -0.425,-0.176 -0.931,-0.264 -1.518,-0.264 -0.88,0 -1.533,0.169 -1.958,0.506 -0.411,0.323 -0.616,0.77 -0.616,1.342 0,0.381 0.095,0.704 0.286,0.968 0.205,0.264 0.506,0.484 0.902,0.66 0.396,0.176 0.902,0.33 1.518,0.462 l 0.506,0.11 c 1.1,0.235 2.053,0.535 2.86,0.902 0.821,0.367 1.459,0.851 1.914,1.452 0.455,0.601 0.682,1.371 0.682,2.31 0,0.939 -0.242,1.767 -0.726,2.486 -0.469,0.704 -1.144,1.261 -2.024,1.672 -0.865,0.396 -1.892,0.594 -3.08,0.594 z m 11.066,-0.308 v -12.76 h -4.488 v -2.64 h 11.88 v 2.64 h -4.488 v 12.76 z m 6.895,0 4.048,-15.4 h 5.06 l 4.048,15.4 h -2.992 l -0.836,-3.388 h -5.5 l -0.836,3.388 z m 4.51,-6.072 h 4.136 l -1.87,-7.502 h -0.396 z m 10.49,6.072 v -15.4 h 5.522 l 3.058,13.42 h 0.396 v -13.42 h 2.86 v 15.4 h -5.522 l -3.058,-13.42 h -0.396 v 13.42 z m 14.298,0 v -2.552 h 2.024 v -10.296 h -2.024 v -2.552 h 6.336 c 2.068,0 3.637,0.528 4.707,1.584 1.09,1.041 1.63,2.596 1.63,4.664 v 2.904 c 0,2.068 -0.54,3.63 -1.63,4.686 -1.07,1.041 -2.639,1.562 -4.707,1.562 z m 4.928,-2.64 h 1.452 c 1.173,0 2.031,-0.308 2.574,-0.924 0.543,-0.616 0.814,-1.481 0.814,-2.596 v -3.08 c 0,-1.129 -0.271,-1.995 -0.814,-2.596 -0.543,-0.616 -1.401,-0.924 -2.574,-0.924 h -1.452 z m 8.975,2.64 4.05,-15.4 h 5.06 l 4.05,15.4 h -2.99 l -0.84,-3.388 h -5.5 l -0.83,3.388 z m 4.51,-6.072 h 4.14 l -1.87,-7.502 h -0.4 z m 10.49,6.072 v -15.4 h 6.69 c 0.97,0 1.81,0.169 2.53,0.506 0.72,0.337 1.28,0.814 1.67,1.43 0.4,0.616 0.6,1.342 0.6,2.178 v 0.264 c 0,0.924 -0.22,1.672 -0.66,2.244 -0.44,0.572 -0.98,0.99 -1.63,1.254 v 0.396 c 0.59,0.029 1.04,0.235 1.36,0.616 0.33,0.367 0.49,0.858 0.49,1.474 v 5.038 h -2.91 v -4.62 c 0,-0.352 -0.09,-0.638 -0.28,-0.858 -0.18,-0.22 -0.48,-0.33 -0.9,-0.33 h -4.05 v 5.808 z m 2.91,-8.448 h 3.47 c 0.69,0 1.23,-0.183 1.61,-0.55 0.4,-0.381 0.59,-0.88 0.59,-1.496 v -0.22 c 0,-0.616 -0.19,-1.107 -0.57,-1.474 -0.38,-0.381 -0.92,-0.572 -1.63,-0.572 h -3.47 z m 10.55,8.448 v -2.552 h 2.03 v -10.296 h -2.03 v -2.552 h 6.34 c 2.07,0 3.64,0.528 4.71,1.584 1.08,1.041 1.63,2.596 1.63,4.664 v 2.904 c 0,2.068 -0.55,3.63 -1.63,4.686 -1.07,1.041 -2.64,1.562 -4.71,1.562 z m 4.93,-2.64 h 1.45 c 1.18,0 2.04,-0.308 2.58,-0.924 0.54,-0.616 0.81,-1.481 0.81,-2.596 v -3.08 c 0,-1.129 -0.27,-1.995 -0.81,-2.596 -0.54,-0.616 -1.4,-0.924 -2.58,-0.924 h -1.45 z m 18.65,2.64 v -12.76 h -4.49 v -2.64 h 11.88 v 2.64 h -4.49 v 12.76 z m 9.37,0 v -15.4 h 9.9 v 2.64 h -7 v 3.674 h 6.38 v 2.64 h -6.38 v 3.806 h 7.13 v 2.64 z m 12.18,0 v -15.4 h 6.69 c 0.97,0 1.81,0.169 2.53,0.506 0.72,0.337 1.28,0.814 1.67,1.43 0.4,0.616 0.6,1.342 0.6,2.178 v 0.264 c 0,0.924 -0.22,1.672 -0.66,2.244 -0.44,0.572 -0.99,0.99 -1.63,1.254 v 0.396 c 0.58,0.029 1.04,0.235 1.36,0.616 0.32,0.367 0.49,0.858 0.49,1.474 v 5.038 h -2.91 v -4.62 c 0,-0.352 -0.09,-0.638 -0.28,-0.858 -0.18,-0.22 -0.48,-0.33 -0.91,-0.33 h -4.04 v 5.808 z m 2.91,-8.448 h 3.47 c 0.69,0 1.23,-0.183 1.61,-0.55 0.39,-0.381 0.59,-0.88 0.59,-1.496 v -0.22 c 0,-0.616 -0.19,-1.107 -0.57,-1.474 -0.38,-0.381 -0.92,-0.572 -1.63,-0.572 h -3.47 z m 10.99,8.448 v -15.4 h 5.39 l 2.66,13.42 h 0.4 l 2.66,-13.42 h 5.39 v 15.4 h -2.81 v -13.266 h -0.4 l -2.64,13.266 h -4.8 l -2.64,-13.266 h -0.39 v 13.266 z m 30.33,0.308 c -1.18,0 -2.23,-0.213 -3.14,-0.638 -0.91,-0.425 -1.62,-1.034 -2.14,-1.826 -0.51,-0.792 -0.77,-1.745 -0.77,-2.86 v -0.616 h 2.86 v 0.616 c 0,0.924 0.29,1.621 0.86,2.09 0.57,0.455 1.35,0.682 2.33,0.682 1,0 1.74,-0.198 2.23,-0.594 0.49,-0.396 0.74,-0.902 0.74,-1.518 0,-0.425 -0.12,-0.77 -0.37,-1.034 -0.23,-0.264 -0.59,-0.477 -1.06,-0.638 -0.45,-0.176 -1.01,-0.337 -1.67,-0.484 l -0.5,-0.11 c -1.06,-0.235 -1.97,-0.528 -2.73,-0.88 -0.75,-0.367 -1.33,-0.843 -1.74,-1.43 -0.4,-0.587 -0.59,-1.349 -0.59,-2.288 0,-0.939 0.22,-1.738 0.66,-2.398 0.45,-0.675 1.08,-1.188 1.89,-1.54 0.82,-0.367 1.78,-0.55 2.88,-0.55 1.1,0 2.08,0.191 2.93,0.572 0.86,0.367 1.54,0.924 2.02,1.672 0.5,0.733 0.75,1.657 0.75,2.772 v 0.66 h -2.86 v -0.66 c 0,-0.587 -0.12,-1.056 -0.35,-1.408 -0.22,-0.367 -0.55,-0.631 -0.97,-0.792 -0.43,-0.176 -0.93,-0.264 -1.52,-0.264 -0.88,0 -1.53,0.169 -1.96,0.506 -0.41,0.323 -0.61,0.77 -0.61,1.342 0,0.381 0.09,0.704 0.28,0.968 0.21,0.264 0.51,0.484 0.9,0.66 0.4,0.176 0.91,0.33 1.52,0.462 l 0.51,0.11 c 1.1,0.235 2.05,0.535 2.86,0.902 0.82,0.367 1.46,0.851 1.91,1.452 0.46,0.601 0.68,1.371 0.68,2.31 0,0.939 -0.24,1.767 -0.72,2.486 -0.47,0.704 -1.15,1.261 -2.03,1.672 -0.86,0.396 -1.89,0.594 -3.08,0.594 z m 13.94,0 c -1.26,0 -2.35,-0.227 -3.26,-0.682 -0.89,-0.469 -1.58,-1.129 -2.06,-1.98 -0.47,-0.865 -0.71,-1.885 -0.71,-3.058 v -9.988 h 2.91 v 10.076 c 0,0.939 0.26,1.679 0.79,2.222 0.54,0.543 1.32,0.814 2.33,0.814 1.01,0 1.78,-0.271 2.31,-0.814 0.54,-0.543 0.81,-1.283 0.81,-2.222 v -10.076 h 2.91 v 9.988 c 0,1.173 -0.24,2.193 -0.73,3.058 -0.47,0.851 -1.16,1.511 -2.07,1.98 -0.89,0.455 -1.97,0.682 -3.23,0.682 z m 8.84,-0.308 v -15.4 h 6.34 c 0.97,0 1.82,0.198 2.55,0.594 0.75,0.381 1.33,0.924 1.74,1.628 0.42,0.704 0.64,1.54 0.64,2.508 v 0.308 c 0,0.953 -0.22,1.789 -0.66,2.508 -0.43,0.704 -1.02,1.254 -1.76,1.65 -0.74,0.381 -1.57,0.572 -2.51,0.572 h -3.43 v 5.632 z m 2.91,-8.272 h 3.14 c 0.69,0 1.25,-0.191 1.67,-0.572 0.43,-0.381 0.64,-0.902 0.64,-1.562 v -0.22 c 0,-0.66 -0.21,-1.181 -0.64,-1.562 -0.42,-0.381 -0.98,-0.572 -1.67,-0.572 h -3.14 z m 10.37,8.272 v -15.4 h 6.33 c 0.97,0 1.82,0.198 2.56,0.594 0.74,0.381 1.32,0.924 1.73,1.628 0.43,0.704 0.64,1.54 0.64,2.508 v 0.308 c 0,0.953 -0.22,1.789 -0.66,2.508 -0.42,0.704 -1.01,1.254 -1.76,1.65 -0.73,0.381 -1.57,0.572 -2.51,0.572 h -3.43 v 5.632 z m 2.9,-8.272 h 3.15 c 0.69,0 1.25,-0.191 1.67,-0.572 0.43,-0.381 0.64,-0.902 0.64,-1.562 v -0.22 c 0,-0.66 -0.21,-1.181 -0.64,-1.562 -0.42,-0.381 -0.98,-0.572 -1.67,-0.572 h -3.15 z m 16.36,8.58 c -1.94,0 -3.48,-0.528 -4.62,-1.584 -1.14,-1.071 -1.72,-2.596 -1.72,-4.576 v -3.696 c 0,-1.98 0.58,-3.498 1.72,-4.554 1.14,-1.071 2.68,-1.606 4.62,-1.606 1.94,0 3.48,0.535 4.62,1.606 1.14,1.056 1.72,2.574 1.72,4.554 v 3.696 c 0,1.98 -0.58,3.505 -1.72,4.576 -1.14,1.056 -2.68,1.584 -4.62,1.584 z m 0,-2.596 c 1.09,0 1.93,-0.315 2.53,-0.946 0.6,-0.631 0.9,-1.474 0.9,-2.53 v -3.872 c 0,-1.056 -0.3,-1.899 -0.9,-2.53 -0.6,-0.631 -1.44,-0.946 -2.53,-0.946 -1.07,0 -1.91,0.315 -2.53,0.946 -0.6,0.631 -0.9,1.474 -0.9,2.53 v 3.872 c 0,1.056 0.3,1.899 0.9,2.53 0.62,0.631 1.46,0.946 2.53,0.946 z m 8.88,2.288 v -15.4 h 6.69 c 0.97,0 1.81,0.169 2.53,0.506 0.72,0.337 1.28,0.814 1.67,1.43 0.4,0.616 0.6,1.342 0.6,2.178 v 0.264 c 0,0.924 -0.22,1.672 -0.66,2.244 -0.44,0.572 -0.99,0.99 -1.63,1.254 v 0.396 c 0.59,0.029 1.04,0.235 1.36,0.616 0.33,0.367 0.49,0.858 0.49,1.474 v 5.038 h -2.91 v -4.62 c 0,-0.352 -0.09,-0.638 -0.28,-0.858 -0.18,-0.22 -0.48,-0.33 -0.9,-0.33 h -4.05 v 5.808 z m 2.91,-8.448 h 3.47 c 0.69,0 1.23,-0.183 1.61,-0.55 0.4,-0.381 0.59,-0.88 0.59,-1.496 v -0.22 c 0,-0.616 -0.19,-1.107 -0.57,-1.474 -0.38,-0.381 -0.92,-0.572 -1.63,-0.572 h -3.47 z m 14.3,8.448 v -12.76 h -4.49 v -2.64 h 11.88 v 2.64 h -4.49 v 12.76 z"
       fill="#33312d"
       id="path28" />
    <rect
       x="882"
       y="559.46503"
       width="39"
       height="39"
       rx="6"
       fill="#b7b7b7"
       id="rect28" />
    <path
       d="m 948,151 -12,12"
       stroke="#6c6c6c"
       stroke-width="6"
       stroke-linecap="round"
       id="path29" />
    <path
       d="m 936,151 12,12"
       stroke="#6c6c6c"
       stroke-width="6"
       stroke-linecap="round"
       id="path30" />
    <path
       d="m 146,483 h 956 c 3.31,0 6,-2.686 6,-6 v -20 c 0,-3.314 -2.69,-6 -6,-6 H 146 Z"
       fill="url(#paint6_linear_3731_131)"
       id="path31"
       style="fill:url(#paint6_linear_3731_131)" />
    <path
       d="m 462,434 h 476 c 3.314,0 6,-2.686 6,-6 v -20 c 0,-3.314 -2.686,-6 -6,-6 H 462 Z"
       fill="#b7b7b7"
       id="path32" />
    <path
       d="m 1092,294 h 522 c 3.31,0 6,-2.686 6,-6 v -20 c 0,-3.314 -2.69,-6 -6,-6 h -522 z"
       fill="url(#paint7_linear_3731_131)"
       id="path33"
       style="fill:url(#paint7_linear_3731_131)" />
  </g>
  <defs
     id="defs51">
    <linearGradient
       id="paint0_linear_3731_131"
       x1="2450.25"
       y1="166.157"
       x2="1630.88"
       y2="166.157"
       gradientUnits="userSpaceOnUse">
      <stop
         offset="0.754034"
         stop-color="#3E3E3E"
         id="stop33" />
      <stop
         offset="1"
         stop-color="#3E3E3E"
         stop-opacity="0"
         id="stop34" />
    </linearGradient>
    <linearGradient
       id="paint1_linear_3731_131"
       x1="761.98499"
       y1="157.315"
       x2="20.507401"
       y2="157.315"
       gradientUnits="userSpaceOnUse">
      <stop
         offset="0.890625"
         stop-color="#3E3E3E"
         id="stop35" />
      <stop
         offset="1"
         stop-color="#B8B8B8"
         stop-opacity="0"
         id="stop36" />
    </linearGradient>
    <linearGradient
       id="paint2_linear_3731_131"
       x1="716"
       y1="46.254299"
       x2="738.224"
       y2="134.13499"
       gradientUnits="userSpaceOnUse">
      <stop
         stop-color="#D600AA"
         id="stop37" />
      <stop
         offset="1"
         stop-color="#512BD4"
         id="stop38" />
    </linearGradient>
    <linearGradient
       id="paint3_linear_3731_131"
       x1="740.56097"
       y1="311.13599"
       x2="1849.63"
       y2="311.13599"
       gradientUnits="userSpaceOnUse">
      <stop
         stop-color="#D600AA"
         id="stop39" />
      <stop
         offset="0.694789"
         stop-color="#9316BF"
         id="stop40" />
      <stop
         offset="0.779729"
         stop-color="#512BD4"
         stop-opacity="0"
         id="stop41" />
    </linearGradient>
    <linearGradient
       id="paint4_linear_3731_131"
       x1="1399.12"
       y1="213.05901"
       x2="1638.92"
       y2="213.05901"
       gradientUnits="userSpaceOnUse">
      <stop
         stop-color="#D600AA"
         id="stop42" />
      <stop
         offset="0.458333"
         stop-color="#9316BF"
         id="stop43" />
      <stop
         offset="0.860407"
         stop-color="#512BD4"
         stop-opacity="0"
         id="stop44" />
    </linearGradient>
    <linearGradient
       id="paint5_linear_3731_131"
       x1="474"
       y1="598.39301"
       x2="528.53101"
       y2="611.08398"
       gradientUnits="userSpaceOnUse">
      <stop
         stop-color="#D600AA"
         id="stop45" />
      <stop
         offset="1"
         stop-color="#512BD4"
         id="stop46" />
    </linearGradient>
    <linearGradient
       id="paint6_linear_3731_131"
       x1="101"
       y1="451.05899"
       x2="1108"
       y2="451.05899"
       gradientUnits="userSpaceOnUse">
      <stop
         stop-color="#D600AA"
         id="stop47" />
      <stop
         offset="1"
         stop-color="#512BD4"
         id="stop48" />
    </linearGradient>
    <linearGradient
       id="paint7_linear_3731_131"
       x1="1092"
       y1="272"
       x2="1620"
       y2="278"
       gradientUnits="userSpaceOnUse">
      <stop
         stop-color="#B7B7B7"
         id="stop49" />
      <stop
         offset="0.789269"
         stop-color="#B7B7B7"
         stop-opacity="0.8"
         id="stop50" />
      <stop
         offset="0.973305"
         stop-color="#B7B7B7"
         stop-opacity="0"
         id="stop51" />
    </linearGradient>
    <clipPath
       id="clip0_3731_131">
      <rect
         width="1644"
         height="659"
         fill="#ffffff"
         id="rect51"
         x="0"
         y="0" />
    </clipPath>
  </defs>
</svg>
